<svg width="19" height="18" viewBox="0 0 19 18" fill="none" xmlns="http://www.w3.org/2000/svg">
<path d="M1.66265 17.9926C1.38602 17.9909 1.11419 17.9241 0.871658 17.7984C0.629124 17.6727 0.423499 17.4919 0.273308 17.2723C0.121322 17.056 0.0293817 16.8071 0.00595999 16.5484C-0.0174617 16.2897 0.0283882 16.0296 0.139285 15.792L1.21454 13.4203C0.153765 11.5935 -0.174098 9.46647 0.291153 7.42966C0.756405 5.39284 1.98354 3.58301 3.74722 2.33251C5.5109 1.082 7.69272 0.474774 9.89204 0.622325C12.0914 0.769876 14.1605 1.6623 15.7196 3.13573C17.2787 4.60915 18.223 6.56466 18.3791 8.64317C18.5352 10.7217 17.8927 12.7836 16.5695 14.4504C15.2463 16.1172 13.3313 17.277 11.1761 17.7166C9.02088 18.1563 6.77017 17.8465 4.83725 16.844L2.32765 17.8602C2.11784 17.9467 1.89154 17.9917 1.66265 17.9926ZM9.24876 2.16391C7.91586 2.16442 6.60718 2.50062 5.45743 3.1379C4.30768 3.77518 3.3584 4.69052 2.70731 5.78969C2.05622 6.88886 1.72684 8.13215 1.75308 9.39159C1.77931 10.651 2.16022 11.8811 2.85658 12.9552L3.08165 13.3023L1.67083 16.4128L4.96207 15.0794L5.33038 15.2921C6.31806 15.8642 7.43255 16.2121 8.58641 16.3087C9.74027 16.4053 10.9021 16.248 11.9808 15.849C13.0596 15.45 14.0258 14.8203 14.8037 14.0091C15.5817 13.198 16.1502 12.2276 16.4647 11.1739C16.7791 10.1203 16.831 9.01212 16.6163 7.93635C16.4015 6.86058 15.9259 5.84647 15.2268 4.97356C14.5277 4.10065 13.6242 3.39269 12.587 2.90522C11.5498 2.41774 10.4071 2.164 9.24876 2.16391ZM12.583 11.6113H5.9166C5.70065 11.6041 5.49607 11.518 5.34598 11.3711C5.19588 11.2242 5.11199 11.0279 5.11199 10.8237C5.11199 10.6195 5.19588 10.4233 5.34598 10.2764C5.49607 10.1295 5.70065 10.0434 5.9166 10.0362H12.583C12.6949 10.0325 12.8064 10.0501 12.9109 10.088C13.0154 10.126 13.1108 10.1834 13.1913 10.2569C13.2719 10.3304 13.3359 10.4184 13.3797 10.5158C13.4234 10.6132 13.446 10.7179 13.446 10.8237C13.446 10.9295 13.4234 11.0343 13.3797 11.1317C13.3359 11.229 13.2719 11.3171 13.1913 11.3906C13.1108 11.4641 13.0154 11.5215 12.9109 11.5594C12.8064 11.5973 12.6949 11.615 12.583 11.6113ZM8.417 8.46311H5.9166C5.70065 8.45596 5.49607 8.36985 5.34598 8.22295C5.19588 8.07604 5.11199 7.8798 5.11199 7.67559C5.11199 7.47137 5.19588 7.27514 5.34598 7.12823C5.49607 6.98132 5.70065 6.89522 5.9166 6.88807H8.417C8.63295 6.89522 8.83753 6.98132 8.98762 7.12823C9.13772 7.27514 9.2216 7.47137 9.2216 7.67559C9.2216 7.8798 9.13772 8.07604 8.98762 8.22295C8.83753 8.36985 8.63295 8.45596 8.417 8.46311Z" fill="#686969"/>
</svg>
