<svg width="18" height="18" viewBox="0 0 18 18" fill="none" xmlns="http://www.w3.org/2000/svg">
<path opacity="0.6" d="M8.64398 17.5452C8.24653 17.5448 7.85561 17.4497 7.50734 17.2687L1.22053 14.0006C0.851102 13.8082 0.543011 13.5257 0.328348 13.1826C0.113684 12.8394 0.000299911 12.4481 3.4274e-06 12.0495V5.63717C-0.000717231 5.23807 0.112221 4.84615 0.326971 4.5025C0.541721 4.15886 0.850368 3.87617 1.22053 3.68408L7.50837 0.417009C7.85631 0.235708 8.24717 0.140625 8.64449 0.140625C9.04182 0.140625 9.43267 0.235708 9.78062 0.417009L16.0623 3.68505C16.4337 3.87617 16.7437 4.15833 16.9597 4.50184C17.1757 4.84537 17.2898 5.23756 17.29 5.63717V12.0485C17.2901 12.4476 17.1768 12.8394 16.9619 13.183C16.747 13.5265 16.4384 13.8093 16.0684 14.0016L9.78062 17.2697C9.43226 17.4503 9.04134 17.5451 8.64398 17.5452ZM15.7165 5.69905L9.4297 9.26392V15.7575L15.3093 12.7012C15.4331 12.6372 15.5364 12.5429 15.6084 12.4283C15.6804 12.3136 15.7184 12.1828 15.7186 12.0495V5.69905H15.7165ZM1.57145 5.69905V12.0485C1.57158 12.1818 1.60963 12.3127 1.68163 12.4273C1.75362 12.542 1.85691 12.6362 1.98068 12.7002L7.8603 15.7565V9.26392L1.57145 5.69905ZM8.64398 1.62657C8.51119 1.62809 8.38097 1.66135 8.26544 1.72326L2.704 4.60938L8.64398 7.97314L14.584 4.60551L9.02252 1.71842C8.90652 1.6582 8.77633 1.62661 8.64398 1.62657Z" fill="#27AE60"/>
</svg>
