<svg width="18" height="18" viewBox="0 0 18 18" fill="none" xmlns="http://www.w3.org/2000/svg">
<path opacity="0.6" d="M8.57475 17.6772C8.18154 17.6766 7.79472 17.5832 7.44937 17.4055L0.821875 13.9915C0.573254 13.864 0.365665 13.6754 0.22101 13.4456C0.0763557 13.2159 0 12.9535 0 12.6862C0 12.4189 0.0763557 12.1565 0.22101 11.9267C0.365665 11.697 0.573254 11.5084 0.821875 11.3809L1.89406 10.8279L0.821875 10.2787C0.573254 10.1512 0.365665 9.96258 0.22101 9.73284C0.0763557 9.50311 0 9.24073 0 8.97339C0 8.70606 0.0763557 8.44368 0.22101 8.21394C0.365665 7.9842 0.573254 7.79563 0.821875 7.66811L1.89406 7.11893L0.821875 6.56684C0.573254 6.43932 0.365665 6.25075 0.22101 6.02101C0.0763557 5.79127 0 5.52889 0 5.26156C0 4.99422 0.0763557 4.73184 0.22101 4.50211C0.365665 4.27237 0.573254 4.08379 0.821875 3.95628L7.4463 0.546105C7.79248 0.367202 8.1807 0.273438 8.57526 0.273438C8.96982 0.273438 9.35805 0.367202 9.70423 0.546105L16.3276 3.96014C16.5762 4.08766 16.7838 4.27624 16.9285 4.50597C17.0731 4.73571 17.1495 4.99809 17.1495 5.26543C17.1495 5.53276 17.0731 5.79514 16.9285 6.02488C16.7838 6.25461 16.5762 6.44319 16.3276 6.57071L15.2565 7.12279L16.3276 7.67585C16.5762 7.80336 16.7838 7.99194 16.9285 8.22168C17.0731 8.45141 17.1495 8.71379 17.1495 8.98113C17.1495 9.24846 17.0731 9.51084 16.9285 9.74058C16.7838 9.97032 16.5762 10.1589 16.3276 10.2864L15.2565 10.8385L16.3276 11.3915C16.5762 11.5191 16.7838 11.7076 16.9285 11.9374C17.0731 12.1671 17.1495 12.4295 17.1495 12.6968C17.1495 12.9642 17.0731 13.2265 16.9285 13.4563C16.7838 13.686 16.5762 13.8746 16.3276 14.0021L9.70321 17.4045C9.35697 17.5829 8.96906 17.6766 8.57475 17.6772ZM3.53405 11.6768L1.57384 12.6872L8.19826 16.1022C8.31358 16.1617 8.44286 16.1928 8.57424 16.1928C8.70562 16.1928 8.8349 16.1617 8.95022 16.1022L15.5757 12.6872L13.6103 11.6768L9.70321 13.6937C9.35702 13.8726 8.9688 13.9663 8.57424 13.9663C8.17968 13.9663 7.79146 13.8726 7.44527 13.6937L3.53405 11.6768ZM3.53405 7.96591L1.57384 8.97533L8.19826 12.3903C8.31358 12.4498 8.44286 12.481 8.57424 12.481C8.70562 12.481 8.8349 12.4498 8.95022 12.3903L15.5757 8.97533L13.6103 7.96494L9.70321 9.98088C9.35702 10.1598 8.9688 10.2535 8.57424 10.2535C8.17968 10.2535 7.79146 10.1598 7.44527 9.98088L3.53405 7.96591ZM8.57475 1.75857C8.4432 1.75872 8.31377 1.78996 8.19826 1.84945L1.57384 5.26349L8.19826 8.6785C8.31358 8.73799 8.44286 8.76916 8.57424 8.76916C8.70562 8.76916 8.8349 8.73799 8.95022 8.6785L15.5757 5.26349L8.95022 1.84849C8.83507 1.789 8.70598 1.75775 8.57475 1.7576V1.75857Z" fill="#27AE60"/>
</svg>
