<svg width="49" height="49" viewBox="0 0 49 49" fill="none" xmlns="http://www.w3.org/2000/svg">
<path d="M24.6671 28.8887C29.0791 28.8887 32.6671 25.3007 32.6671 20.8887C32.6671 16.4767 29.0791 12.8887 24.6671 12.8887C20.2551 12.8887 16.6671 16.4767 16.6671 20.8887C16.6671 25.3007 20.2551 28.8887 24.6671 28.8887ZM24.6671 16.8887C26.8731 16.8887 28.6671 18.6827 28.6671 20.8887C28.6671 23.0947 26.8731 24.8887 24.6671 24.8887C22.4611 24.8887 20.6671 23.0947 20.6671 20.8887C20.6671 18.6827 22.4611 16.8887 24.6671 16.8887ZM23.5072 44.5167C23.8457 44.7584 24.2512 44.8884 24.6672 44.8884C25.0831 44.8884 25.4887 44.7584 25.8272 44.5167C26.4352 44.0867 40.7252 33.7687 40.6672 20.8887C40.6672 12.0667 33.4892 4.88867 24.6672 4.88867C15.8452 4.88867 8.66717 12.0667 8.66717 20.8787C8.60917 33.7687 22.8992 44.0867 23.5072 44.5167ZM24.6672 8.88867C31.2852 8.88867 36.6672 14.2707 36.6672 20.8987C36.7092 29.7747 27.8912 37.7447 24.6672 40.3587C21.4452 37.7427 12.6252 29.7707 12.6672 20.8887C12.6672 14.2707 18.0492 8.88867 24.6672 8.88867Z" fill="black"/>
<path d="M24.6671 28.8887C29.0791 28.8887 32.6671 25.3007 32.6671 20.8887C32.6671 16.4767 29.0791 12.8887 24.6671 12.8887C20.2551 12.8887 16.6671 16.4767 16.6671 20.8887C16.6671 25.3007 20.2551 28.8887 24.6671 28.8887ZM24.6671 16.8887C26.8731 16.8887 28.6671 18.6827 28.6671 20.8887C28.6671 23.0947 26.8731 24.8887 24.6671 24.8887C22.4611 24.8887 20.6671 23.0947 20.6671 20.8887C20.6671 18.6827 22.4611 16.8887 24.6671 16.8887ZM23.5072 44.5167C23.8457 44.7584 24.2512 44.8884 24.6672 44.8884C25.0831 44.8884 25.4887 44.7584 25.8272 44.5167C26.4352 44.0867 40.7252 33.7687 40.6672 20.8887C40.6672 12.0667 33.4892 4.88867 24.6672 4.88867C15.8452 4.88867 8.66717 12.0667 8.66717 20.8787C8.60917 33.7687 22.8992 44.0867 23.5072 44.5167ZM24.6672 8.88867C31.2852 8.88867 36.6672 14.2707 36.6672 20.8987C36.7092 29.7747 27.8912 37.7447 24.6672 40.3587C21.4452 37.7427 12.6252 29.7707 12.6672 20.8887C12.6672 14.2707 18.0492 8.88867 24.6672 8.88867Z" fill="black"/>
</svg>
