<svg width="31" height="31" viewBox="0 0 31 31" fill="none" xmlns="http://www.w3.org/2000/svg">
<g clip-path="url(#clip0_102_73)">
<path d="M22.6078 0.500075C20.9062 0.614919 19.0851 1.62742 17.9578 2.99383C16.971 4.19617 16.1437 5.96101 16.4578 7.79383C16.1765 7.70711 15.921 7.69773 15.614 7.58758C14.7773 7.28992 13.821 6.96883 12.6328 6.96883C10.2726 6.96883 7.8562 8.37273 6.33276 10.7188C4.11557 14.1266 4.56089 20.1243 7.92651 25.2501C8.51948 26.1501 9.21089 27.1321 10.064 27.9126C10.9171 28.693 11.9484 29.2884 13.1578 29.3001C14.1914 29.3118 14.9109 28.9673 15.5578 28.6813C16.2046 28.3954 16.807 28.1423 17.939 28.1376C17.946 28.1376 17.9507 28.1376 17.9578 28.1376C19.0851 28.1282 19.6687 28.3766 20.3015 28.6626C20.9343 28.9485 21.6468 29.3095 22.6828 29.3001C23.9156 29.2907 24.9632 28.6157 25.8328 27.7813C26.7023 26.947 27.4171 25.9227 28.0078 25.0251C28.8539 23.736 29.1937 23.0329 29.8453 21.5938C29.9132 21.4438 29.9156 21.2704 29.8499 21.118C29.7867 20.9657 29.6625 20.8462 29.5078 20.7876C27.375 19.9813 26.1585 18.0946 25.9828 16.1001C25.807 14.1055 26.6507 12.0524 28.7765 10.8876C28.9335 10.8032 29.0437 10.6555 29.0812 10.4821C29.1164 10.3087 29.0742 10.1259 28.964 9.98758C27.4382 8.09148 25.2914 6.96883 23.189 6.96883C21.8484 6.96883 20.864 7.28523 20.0578 7.58758C19.9242 7.63914 19.8257 7.63445 19.7015 7.68133C20.5195 7.25008 21.2414 6.65242 21.7828 5.95633C22.7671 4.69304 23.5265 2.89539 23.2453 1.00633C23.1984 0.69695 22.9195 0.476638 22.6078 0.500075ZM21.9703 1.92508C21.9304 3.13679 21.5156 4.32273 20.8265 5.20633C20.1046 6.13445 18.8906 6.77664 17.714 6.96883C17.7351 5.80398 18.1945 4.59695 18.8953 3.74383C19.6312 2.8532 20.8499 2.21101 21.9703 1.92508ZM12.6328 8.16883C13.1578 8.16883 14.3765 8.41961 15.2015 8.71258C16.0265 9.00555 16.896 9.35008 17.9203 9.35008C18.921 9.35008 19.7132 9.0032 20.489 8.71258C21.2648 8.42195 22.0382 8.16883 23.189 8.16883C24.6914 8.16883 26.3156 8.94929 27.5953 10.3063C25.5468 11.7524 24.5882 14.0071 24.7828 16.1938C24.9773 18.404 26.3085 20.5016 28.4953 21.5938C28.4921 21.6006 28.489 21.6075 28.4859 21.6142C28.0177 22.6341 27.7055 23.3141 27.014 24.3688C26.4398 25.243 25.7578 26.1993 25.0078 26.9188C24.2578 27.6384 23.4632 28.093 22.664 28.1001C21.8929 28.1071 21.4546 27.8774 20.789 27.5751C20.1234 27.2727 19.2632 26.9259 17.939 26.9376C16.6171 26.9446 15.7453 27.2774 15.0703 27.5751C14.3953 27.8727 13.9523 28.1071 13.1765 28.1001C12.3562 28.093 11.5945 27.6946 10.8703 27.0313C10.146 26.368 9.49214 25.4634 8.92026 24.5938C5.77026 19.7938 5.51714 14.1548 7.32651 11.3751C8.65307 9.33367 12.1078 8.16883 12.6328 8.16883Z" fill="black"/>
<path d="M12.6328 8.16883C13.1578 8.16883 14.3765 8.41961 15.2015 8.71258C16.0265 9.00555 16.896 9.35008 17.9203 9.35008C18.921 9.35008 19.7132 9.0032 20.489 8.71258C21.2648 8.42195 22.0382 8.16883 23.189 8.16883C24.6914 8.16883 26.3156 8.94929 27.5953 10.3063C25.5468 11.7524 24.5882 14.0071 24.7828 16.1938C24.9773 18.404 26.3085 20.5016 28.4953 21.5938L28.4859 21.6142C28.0177 22.6341 27.7055 23.3141 27.014 24.3688C26.4398 25.243 25.7578 26.1993 25.0078 26.9188C24.2578 27.6384 23.4632 28.093 22.664 28.1001C21.8929 28.1071 21.4546 27.8774 20.789 27.5751C20.1234 27.2727 19.2632 26.9259 17.939 26.9376C16.6171 26.9446 15.7453 27.2774 15.0703 27.5751C14.3953 27.8727 13.9523 28.1071 13.1765 28.1001C12.3562 28.093 11.5945 27.6946 10.8703 27.0313C10.146 26.368 9.49214 25.4634 8.92026 24.5938C5.77026 19.7938 5.51714 14.1548 7.32651 11.3751C8.65307 9.33367 12.1078 8.16883 12.6328 8.16883Z" fill="black"/>
<path d="M21.9703 1.92508C21.9304 3.13679 21.5156 4.32273 20.8265 5.20633C20.1046 6.13445 18.8906 6.77664 17.714 6.96883C17.7351 5.80398 18.1945 4.59695 18.8953 3.74383C19.6312 2.8532 20.8499 2.21101 21.9703 1.92508Z" fill="black"/>
</g>
<defs>
<clipPath id="clip0_102_73">
<rect width="30" height="30" fill="white" transform="translate(0.75 0.500061)"/>
</clipPath>
</defs>
</svg>
