<svg width="49" height="49" viewBox="0 0 49 49" fill="none" xmlns="http://www.w3.org/2000/svg">
<path d="M35.7477 25.4746C35.5621 25.2887 35.3417 25.1412 35.0991 25.0406C34.8564 24.94 34.5963 24.8882 34.3337 24.8882C34.071 24.8882 33.8109 24.94 33.5683 25.0406C33.3257 25.1412 33.1052 25.2887 32.9197 25.4746L29.7317 28.6626C28.2537 28.2226 25.4957 27.2226 23.7477 25.4746C21.9997 23.7266 20.9997 20.9686 20.5597 19.4906L23.7477 16.3026C23.9336 16.117 24.081 15.8966 24.1817 15.654C24.2823 15.4113 24.3341 15.1513 24.3341 14.8886C24.3341 14.6259 24.2823 14.3658 24.1817 14.1232C24.081 13.8806 23.9336 13.6602 23.7477 13.4746L15.7477 5.47459C15.5621 5.28869 15.3417 5.14122 15.0991 5.0406C14.8564 4.93998 14.5963 4.88818 14.3337 4.88818C14.071 4.88818 13.8109 4.93998 13.5683 5.0406C13.3257 5.14122 13.1053 5.28869 12.9197 5.47459L7.49568 10.8986C6.73568 11.6586 6.30768 12.7026 6.32368 13.7686C6.36968 16.6166 7.12368 26.5086 14.9197 34.3046C22.7157 42.1006 32.6077 42.8526 35.4577 42.9006H35.5137C36.5697 42.9006 37.5677 42.4846 38.3237 41.7286L43.7477 36.3046C43.9336 36.119 44.081 35.8986 44.1817 35.656C44.2823 35.4133 44.3341 35.1533 44.3341 34.8906C44.3341 34.6279 44.2823 34.3678 44.1817 34.1252C44.081 33.8826 43.9336 33.6622 43.7477 33.4766L35.7477 25.4746ZM35.4937 38.8986C32.9977 38.8566 24.4577 38.1866 17.7477 31.4746C11.0157 24.7426 10.3637 16.1726 10.3237 13.7266L14.3337 9.71659L19.5057 14.8886L16.9197 17.4746C16.6846 17.7095 16.5118 17.9993 16.4168 18.3177C16.3218 18.6362 16.3077 18.9733 16.3757 19.2986C16.4237 19.5286 17.5977 24.9826 20.9177 28.3026C24.2377 31.6226 29.6917 32.7966 29.9217 32.8446C30.2468 32.9145 30.5842 32.9015 30.903 32.8068C31.2217 32.7121 31.5115 32.5387 31.7457 32.3026L34.3337 29.7166L39.5057 34.8886L35.4937 38.8986Z" fill="black"/>
</svg>
