<svg width="140" height="57" viewBox="0 0 140 57" fill="none" xmlns="http://www.w3.org/2000/svg">
<path fill-rule="evenodd" clip-rule="evenodd" d="M38.5695 17.6387L27.06 40.1387H16.2493L21.066 30.8137H20.8499C16.8761 35.9722 10.9471 39.368 2.49927 40.1387V30.9428C2.49927 30.9428 7.90358 30.6235 11.0806 27.2834H2.49927V17.6388H12.1438V25.5713L12.3602 25.5704L16.3014 17.6388H23.5953V25.521L23.8116 25.5207L27.9006 17.6387H38.5695ZM101.332 37.6552H104.438V19.8262H101.332V37.6552ZM84.2085 37.4731C84.8835 37.7537 85.57 37.8941 86.2678 37.8941C87.4207 37.8941 88.4523 37.6135 89.3626 37.0521C90.2727 36.4909 90.9782 35.7172 91.4788 34.7311C91.9795 33.7375 92.2297 32.611 92.2297 31.3519C92.2297 30.0927 91.9718 28.9664 91.4561 27.9727C90.9402 26.9791 90.2235 26.2092 89.3056 25.663C88.3878 25.1093 87.3448 24.8363 86.1767 24.8438C85.4335 24.8438 84.7205 24.988 84.0377 25.2762C83.3551 25.5644 82.7862 25.974 82.3311 26.505C82.296 26.5454 82.2618 26.5862 82.2287 26.6275V19.8376H79.1112V37.6552H82.206L82.1997 35.9907C82.2797 36.0889 82.3653 36.1847 82.4562 36.2785C82.9492 36.7867 83.5333 37.1849 84.2085 37.4731ZM87.3942 34.5946C86.886 34.9056 86.3057 35.0611 85.6533 35.0611C85.0086 35.0611 84.417 34.9017 83.8785 34.5832C83.3398 34.257 82.9113 33.8134 82.5927 33.252C82.2817 32.6907 82.1262 32.0535 82.1262 31.3405C82.1187 30.6275 82.2703 29.9904 82.5813 29.4291C82.9 28.8602 83.3285 28.4202 83.8671 28.1093C84.4056 27.7907 85.0011 27.6352 85.6533 27.6428C86.3057 27.6352 86.886 27.7869 87.3942 28.0979C87.91 28.4013 88.3043 28.8374 88.5775 29.4063C88.8581 29.9676 88.9985 30.6124 88.9985 31.3405C88.9985 32.0687 88.8581 32.7135 88.5775 33.2747C88.3043 33.8361 87.91 34.276 87.3942 34.5946ZM43.0693 20.9071H46.6192L49.7947 32.5041L53.1728 20.9071H56.1311L59.7947 32.2713L62.844 20.9071H66.098L61.2966 37.6552H58.236L54.5105 26.5532L51.0907 37.6552H47.996L43.0693 20.9071ZM71.3405 37.9509C70.104 37.9586 68.989 37.6854 67.9954 37.1318C67.0093 36.5704 66.2319 35.7929 65.6629 34.7993C65.1017 33.8057 64.821 32.6717 64.821 31.3973C64.821 30.1609 65.1093 29.0422 65.6858 28.0409C66.2622 27.0397 67.0434 26.2584 68.0295 25.6971C69.0157 25.1358 70.1154 24.8552 71.329 24.8552C72.6944 24.8552 73.889 25.1586 74.913 25.7654C75.9447 26.3722 76.7145 27.2331 77.2228 28.3481C77.7385 29.4556 77.9244 30.7261 77.7803 32.1597H68.0344C68.0617 32.7308 68.2042 33.2504 68.4619 33.7184C68.7502 34.2342 69.1522 34.6362 69.6679 34.9244C70.1838 35.2127 70.7602 35.3568 71.3974 35.3568C71.8828 35.3492 72.3342 35.2658 72.7513 35.1066C73.1685 34.9397 73.5212 34.7159 73.8094 34.4352C74.1053 34.1546 74.3139 33.8361 74.4353 33.4796H77.6893C77.4921 34.3518 77.0977 35.1293 76.506 35.8119C75.9143 36.4871 75.171 37.0142 74.2759 37.3934C73.3809 37.7727 72.4024 37.9586 71.3405 37.9509ZM68.4733 29.0308C68.2915 29.3478 68.1655 29.6891 68.0954 30.0548H74.5558C74.5089 29.5928 74.3663 29.1718 74.128 28.7919C73.8549 28.3443 73.4833 27.9992 73.013 27.7565C72.5428 27.5062 72.0118 27.381 71.4202 27.381C70.7906 27.381 70.2179 27.5251 69.702 27.8134C69.1863 28.1016 68.7767 28.5074 68.4733 29.0308ZM94.517 25.1169C94.517 24.1005 94.7483 23.1978 95.211 22.409C95.6736 21.6125 96.3223 20.9943 97.1566 20.5544C97.9985 20.1069 98.9809 19.8755 100.103 19.8604V22.6251C99.58 22.6327 99.1325 22.7427 98.7609 22.9551C98.3968 23.1599 98.1161 23.4595 97.9189 23.8539C97.7374 24.2171 97.6394 24.638 97.625 25.1169H100.035V27.7451H97.6232V37.6552H94.517V27.7451H92.5145V25.1169H94.517ZM112.334 37.9281C111.067 37.9281 109.933 37.6513 108.932 37.0976C107.938 36.5363 107.157 35.7626 106.588 34.7765C106.027 33.7829 105.746 32.6565 105.746 31.3973C105.746 30.1306 106.027 29.0004 106.588 28.0067C107.157 27.0055 107.938 26.228 108.932 25.6743C109.933 25.1206 111.067 24.8437 112.334 24.8437C113.608 24.8437 114.746 25.1206 115.747 25.6743C116.756 26.228 117.541 27.0017 118.103 27.9954C118.664 28.989 118.948 30.123 118.956 31.3973C118.948 32.6565 118.664 33.7829 118.103 34.7765C117.549 35.7626 116.768 36.5363 115.759 37.0976C114.75 37.6513 113.608 37.9281 112.334 37.9281ZM112.334 35.0724C113.002 35.0724 113.593 34.9206 114.109 34.6173C114.625 34.3063 115.023 33.8739 115.304 33.3201C115.584 32.7589 115.725 32.1179 115.725 31.3973C115.725 30.6691 115.584 30.0244 115.304 29.4631C115.023 28.9018 114.625 28.4694 114.109 28.166C113.593 27.855 113.002 27.6995 112.334 27.6995C111.674 27.6995 111.086 27.855 110.57 28.166C110.062 28.4694 109.668 28.9018 109.387 29.4631C109.107 30.0244 108.97 30.6691 108.978 31.3973C108.978 32.1179 109.118 32.7589 109.399 33.3201C109.687 33.8739 110.081 34.3063 110.582 34.6173C111.09 34.9206 111.674 35.0724 112.334 35.0724ZM122.312 25.1169H118.854L122.597 37.6552H125.623L128.085 29.6469L130.743 37.6552H133.724L137.479 25.1169H134.35L132.22 32.9212L129.867 25.1169H126.841L124.499 33.0931L122.312 25.1169Z" fill="white"/>
<path d="M38.5695 17.6387L27.06 40.1387H16.2493L21.066 30.8137H20.8499C16.8761 35.9722 10.9471 39.368 2.49927 40.1387V30.9428C2.49927 30.9428 7.90358 30.6235 11.0806 27.2834H2.49927V17.6388H12.1438V25.5713L12.3602 25.5704L16.3014 17.6388H23.5953V25.521L23.8116 25.5207L27.9006 17.6387H38.5695ZM101.332 37.6552H104.438V19.8262H101.332V37.6552ZM84.2085 37.4731C84.8835 37.7537 85.57 37.8941 86.2678 37.8941C87.4207 37.8941 88.4523 37.6135 89.3626 37.0521C90.2727 36.4909 90.9782 35.7172 91.4788 34.7311C91.9795 33.7375 92.2297 32.611 92.2297 31.3519C92.2297 30.0927 91.9718 28.9664 91.4561 27.9727C90.9402 26.9791 90.2235 26.2092 89.3056 25.663C88.3878 25.1093 87.3448 24.8363 86.1767 24.8438C85.4335 24.8438 84.7205 24.988 84.0377 25.2762C83.3551 25.5644 82.7862 25.974 82.3311 26.505C82.296 26.5454 82.2618 26.5862 82.2287 26.6275V19.8376H79.1112V37.6552H82.206L82.1997 35.9907C82.2797 36.0889 82.3653 36.1847 82.4562 36.2785C82.9492 36.7867 83.5333 37.1849 84.2085 37.4731ZM87.3942 34.5946C86.886 34.9056 86.3057 35.0611 85.6533 35.0611C85.0086 35.0611 84.417 34.9017 83.8785 34.5832C83.3398 34.257 82.9113 33.8134 82.5927 33.252C82.2817 32.6907 82.1262 32.0535 82.1262 31.3405C82.1187 30.6275 82.2703 29.9904 82.5813 29.4291C82.9 28.8602 83.3285 28.4202 83.8671 28.1093C84.4056 27.7907 85.0011 27.6352 85.6533 27.6428C86.3057 27.6352 86.886 27.7869 87.3942 28.0979C87.91 28.4013 88.3043 28.8374 88.5775 29.4063C88.8581 29.9676 88.9985 30.6124 88.9985 31.3405C88.9985 32.0687 88.8581 32.7135 88.5775 33.2747C88.3043 33.8361 87.91 34.276 87.3942 34.5946ZM43.0693 20.9071H46.6192L49.7947 32.5041L53.1728 20.9071H56.1311L59.7947 32.2713L62.844 20.9071H66.098L61.2966 37.6552H58.236L54.5105 26.5532L51.0907 37.6552H47.996L43.0693 20.9071ZM71.3405 37.9509C70.104 37.9586 68.989 37.6854 67.9954 37.1318C67.0093 36.5704 66.2319 35.7929 65.6629 34.7993C65.1017 33.8057 64.821 32.6717 64.821 31.3973C64.821 30.1609 65.1093 29.0422 65.6858 28.0409C66.2622 27.0397 67.0434 26.2584 68.0295 25.6971C69.0157 25.1358 70.1154 24.8552 71.329 24.8552C72.6944 24.8552 73.889 25.1586 74.913 25.7654C75.9447 26.3722 76.7145 27.2331 77.2228 28.3481C77.7385 29.4556 77.9244 30.7261 77.7803 32.1597H68.0344C68.0617 32.7308 68.2042 33.2504 68.4619 33.7184C68.7502 34.2342 69.1522 34.6362 69.6679 34.9244C70.1838 35.2127 70.7602 35.3568 71.3974 35.3568C71.8828 35.3492 72.3342 35.2658 72.7513 35.1066C73.1685 34.9397 73.5212 34.7159 73.8094 34.4352C74.1053 34.1546 74.3139 33.8361 74.4353 33.4796H77.6893C77.4921 34.3518 77.0977 35.1293 76.506 35.8119C75.9143 36.4871 75.171 37.0142 74.2759 37.3934C73.3809 37.7727 72.4024 37.9586 71.3405 37.9509ZM68.4733 29.0308C68.2915 29.3478 68.1655 29.6891 68.0954 30.0548H74.5558C74.5089 29.5928 74.3663 29.1718 74.128 28.7919C73.8549 28.3443 73.4833 27.9992 73.013 27.7565C72.5428 27.5062 72.0118 27.381 71.4202 27.381C70.7906 27.381 70.2179 27.5251 69.702 27.8134C69.1863 28.1016 68.7767 28.5074 68.4733 29.0308ZM94.517 25.1169C94.517 24.1005 94.7483 23.1978 95.211 22.409C95.6736 21.6125 96.3223 20.9943 97.1566 20.5544C97.9985 20.1069 98.9809 19.8755 100.103 19.8604V22.6251C99.58 22.6327 99.1325 22.7427 98.7609 22.9551C98.3968 23.1599 98.1161 23.4595 97.9189 23.8539C97.7374 24.2171 97.6394 24.638 97.625 25.1169H100.035V27.7451H97.6232V37.6552H94.517V27.7451H92.5145V25.1169H94.517ZM112.334 37.9281C111.067 37.9281 109.933 37.6513 108.932 37.0976C107.938 36.5363 107.157 35.7626 106.588 34.7765C106.027 33.7829 105.746 32.6565 105.746 31.3973C105.746 30.1306 106.027 29.0004 106.588 28.0067C107.157 27.0055 107.938 26.228 108.932 25.6743C109.933 25.1206 111.067 24.8437 112.334 24.8437C113.608 24.8437 114.746 25.1206 115.747 25.6743C116.756 26.228 117.541 27.0017 118.103 27.9954C118.664 28.989 118.948 30.123 118.956 31.3973C118.948 32.6565 118.664 33.7829 118.103 34.7765C117.549 35.7626 116.768 36.5363 115.759 37.0976C114.75 37.6513 113.608 37.9281 112.334 37.9281ZM112.334 35.0724C113.002 35.0724 113.593 34.9206 114.109 34.6173C114.625 34.3063 115.023 33.8739 115.304 33.3201C115.584 32.7589 115.725 32.1179 115.725 31.3973C115.725 30.6691 115.584 30.0244 115.304 29.4631C115.023 28.9018 114.625 28.4694 114.109 28.166C113.593 27.855 113.002 27.6995 112.334 27.6995C111.674 27.6995 111.086 27.855 110.57 28.166C110.062 28.4694 109.668 28.9018 109.387 29.4631C109.107 30.0244 108.97 30.6691 108.978 31.3973C108.978 32.1179 109.118 32.7589 109.399 33.3201C109.687 33.8739 110.081 34.3063 110.582 34.6173C111.09 34.9206 111.674 35.0724 112.334 35.0724ZM122.312 25.1169H118.854L122.597 37.6552H125.623L128.085 29.6469L130.743 37.6552H133.724L137.479 25.1169H134.35L132.22 32.9212L129.867 25.1169H126.841L124.499 33.0931L122.312 25.1169Z" fill="white"/>
<path fill-rule="evenodd" clip-rule="evenodd" d="M38.5695 17.6387L27.06 40.1387H16.2493L21.066 30.8137H20.8499C16.8761 35.9722 10.9471 39.368 2.49927 40.1387V30.9428C2.49927 30.9428 7.90358 30.6235 11.0806 27.2834H2.49927V17.6388H12.1438V25.5713L12.3602 25.5704L16.3014 17.6388H23.5953V25.521L23.8116 25.5207L27.9006 17.6387H38.5695ZM101.332 37.6552H104.438V19.8262H101.332V37.6552ZM84.2085 37.4731C84.8835 37.7537 85.57 37.8941 86.2678 37.8941C87.4207 37.8941 88.4523 37.6135 89.3626 37.0521C90.2727 36.4909 90.9782 35.7172 91.4788 34.7311C91.9795 33.7375 92.2297 32.611 92.2297 31.3519C92.2297 30.0927 91.9718 28.9664 91.4561 27.9727C90.9402 26.9791 90.2235 26.2092 89.3056 25.663C88.3878 25.1093 87.3448 24.8363 86.1767 24.8438C85.4335 24.8438 84.7205 24.988 84.0377 25.2762C83.3551 25.5644 82.7862 25.974 82.3311 26.505C82.296 26.5454 82.2618 26.5862 82.2287 26.6275V19.8376H79.1112V37.6552H82.206L82.1997 35.9907C82.2797 36.0889 82.3653 36.1847 82.4562 36.2785C82.9492 36.7867 83.5333 37.1849 84.2085 37.4731ZM87.3942 34.5946C86.886 34.9056 86.3057 35.0611 85.6533 35.0611C85.0086 35.0611 84.417 34.9017 83.8785 34.5832C83.3398 34.257 82.9113 33.8134 82.5927 33.252C82.2817 32.6907 82.1262 32.0535 82.1262 31.3405C82.1187 30.6275 82.2703 29.9904 82.5813 29.4291C82.9 28.8602 83.3285 28.4202 83.8671 28.1093C84.4056 27.7907 85.0011 27.6352 85.6533 27.6428C86.3057 27.6352 86.886 27.7869 87.3942 28.0979C87.91 28.4013 88.3043 28.8374 88.5775 29.4063C88.8581 29.9676 88.9985 30.6124 88.9985 31.3405C88.9985 32.0687 88.8581 32.7135 88.5775 33.2747C88.3043 33.8361 87.91 34.276 87.3942 34.5946ZM43.0693 20.9071H46.6192L49.7947 32.5041L53.1728 20.9071H56.1311L59.7947 32.2713L62.844 20.9071H66.098L61.2966 37.6552H58.236L54.5105 26.5532L51.0907 37.6552H47.996L43.0693 20.9071ZM71.3405 37.9509C70.104 37.9586 68.989 37.6854 67.9954 37.1318C67.0093 36.5704 66.2319 35.7929 65.6629 34.7993C65.1017 33.8057 64.821 32.6717 64.821 31.3973C64.821 30.1609 65.1093 29.0422 65.6858 28.0409C66.2622 27.0397 67.0434 26.2584 68.0295 25.6971C69.0157 25.1358 70.1154 24.8552 71.329 24.8552C72.6944 24.8552 73.889 25.1586 74.913 25.7654C75.9447 26.3722 76.7145 27.2331 77.2228 28.3481C77.7385 29.4556 77.9244 30.7261 77.7803 32.1597H68.0344C68.0617 32.7308 68.2042 33.2504 68.4619 33.7184C68.7502 34.2342 69.1522 34.6362 69.6679 34.9244C70.1838 35.2127 70.7602 35.3568 71.3974 35.3568C71.8828 35.3492 72.3342 35.2658 72.7513 35.1066C73.1685 34.9397 73.5212 34.7159 73.8094 34.4352C74.1053 34.1546 74.3139 33.8361 74.4353 33.4796H77.6893C77.4921 34.3518 77.0977 35.1293 76.506 35.8119C75.9143 36.4871 75.171 37.0142 74.2759 37.3934C73.3809 37.7727 72.4024 37.9586 71.3405 37.9509ZM68.4733 29.0308C68.2915 29.3478 68.1655 29.6891 68.0954 30.0548H74.5558C74.5089 29.5928 74.3663 29.1718 74.128 28.7919C73.8549 28.3443 73.4833 27.9992 73.013 27.7565C72.5428 27.5062 72.0118 27.381 71.4202 27.381C70.7906 27.381 70.2179 27.5251 69.702 27.8134C69.1863 28.1016 68.7767 28.5074 68.4733 29.0308ZM94.517 25.1169C94.517 24.1005 94.7483 23.1978 95.211 22.409C95.6736 21.6125 96.3223 20.9943 97.1566 20.5544C97.9985 20.1069 98.9809 19.8755 100.103 19.8604V22.6251C99.58 22.6327 99.1325 22.7427 98.7609 22.9551C98.3968 23.1599 98.1161 23.4595 97.9189 23.8539C97.7374 24.2171 97.6394 24.638 97.625 25.1169H100.035V27.7451H97.6232V37.6552H94.517V27.7451H92.5145V25.1169H94.517ZM112.334 37.9281C111.067 37.9281 109.933 37.6513 108.932 37.0976C107.938 36.5363 107.157 35.7626 106.588 34.7765C106.027 33.7829 105.746 32.6565 105.746 31.3973C105.746 30.1306 106.027 29.0004 106.588 28.0067C107.157 27.0055 107.938 26.228 108.932 25.6743C109.933 25.1206 111.067 24.8437 112.334 24.8437C113.608 24.8437 114.746 25.1206 115.747 25.6743C116.756 26.228 117.541 27.0017 118.103 27.9954C118.664 28.989 118.948 30.123 118.956 31.3973C118.948 32.6565 118.664 33.7829 118.103 34.7765C117.549 35.7626 116.768 36.5363 115.759 37.0976C114.75 37.6513 113.608 37.9281 112.334 37.9281ZM112.334 35.0724C113.002 35.0724 113.593 34.9206 114.109 34.6173C114.625 34.3063 115.023 33.8739 115.304 33.3201C115.584 32.7589 115.725 32.1179 115.725 31.3973C115.725 30.6691 115.584 30.0244 115.304 29.4631C115.023 28.9018 114.625 28.4694 114.109 28.166C113.593 27.855 113.002 27.6995 112.334 27.6995C111.674 27.6995 111.086 27.855 110.57 28.166C110.062 28.4694 109.668 28.9018 109.387 29.4631C109.107 30.0244 108.97 30.6691 108.978 31.3973C108.978 32.1179 109.118 32.7589 109.399 33.3201C109.687 33.8739 110.081 34.3063 110.582 34.6173C111.09 34.9206 111.674 35.0724 112.334 35.0724ZM122.312 25.1169H118.854L122.597 37.6552H125.623L128.085 29.6469L130.743 37.6552H133.724L137.479 25.1169H134.35L132.22 32.9212L129.867 25.1169H126.841L124.499 33.0931L122.312 25.1169Z" fill="white"/>
<path d="M38.5695 17.6387L27.06 40.1387H16.2493L21.066 30.8137H20.8499C16.8761 35.9722 10.9471 39.368 2.49927 40.1387V30.9428C2.49927 30.9428 7.90358 30.6235 11.0806 27.2834H2.49927V17.6388H12.1438V25.5713L12.3602 25.5704L16.3014 17.6388H23.5953V25.521L23.8116 25.5207L27.9006 17.6387H38.5695ZM101.332 37.6552H104.438V19.8262H101.332V37.6552ZM84.2085 37.4731C84.8835 37.7537 85.57 37.8941 86.2678 37.8941C87.4207 37.8941 88.4523 37.6135 89.3626 37.0521C90.2727 36.4909 90.9782 35.7172 91.4788 34.7311C91.9795 33.7375 92.2297 32.611 92.2297 31.3519C92.2297 30.0927 91.9718 28.9664 91.4561 27.9727C90.9402 26.9791 90.2235 26.2092 89.3056 25.663C88.3878 25.1093 87.3448 24.8363 86.1767 24.8438C85.4335 24.8438 84.7205 24.988 84.0377 25.2762C83.3551 25.5644 82.7862 25.974 82.3311 26.505C82.296 26.5454 82.2618 26.5862 82.2287 26.6275V19.8376H79.1112V37.6552H82.206L82.1997 35.9907C82.2797 36.0889 82.3653 36.1847 82.4562 36.2785C82.9492 36.7867 83.5333 37.1849 84.2085 37.4731ZM87.3942 34.5946C86.886 34.9056 86.3057 35.0611 85.6533 35.0611C85.0086 35.0611 84.417 34.9017 83.8785 34.5832C83.3398 34.257 82.9113 33.8134 82.5927 33.252C82.2817 32.6907 82.1262 32.0535 82.1262 31.3405C82.1187 30.6275 82.2703 29.9904 82.5813 29.4291C82.9 28.8602 83.3285 28.4202 83.8671 28.1093C84.4056 27.7907 85.0011 27.6352 85.6533 27.6428C86.3057 27.6352 86.886 27.7869 87.3942 28.0979C87.91 28.4013 88.3043 28.8374 88.5775 29.4063C88.8581 29.9676 88.9985 30.6124 88.9985 31.3405C88.9985 32.0687 88.8581 32.7135 88.5775 33.2747C88.3043 33.8361 87.91 34.276 87.3942 34.5946ZM43.0693 20.9071H46.6192L49.7947 32.5041L53.1728 20.9071H56.1311L59.7947 32.2713L62.844 20.9071H66.098L61.2966 37.6552H58.236L54.5105 26.5532L51.0907 37.6552H47.996L43.0693 20.9071ZM71.3405 37.9509C70.104 37.9586 68.989 37.6854 67.9954 37.1318C67.0093 36.5704 66.2319 35.7929 65.6629 34.7993C65.1017 33.8057 64.821 32.6717 64.821 31.3973C64.821 30.1609 65.1093 29.0422 65.6858 28.0409C66.2622 27.0397 67.0434 26.2584 68.0295 25.6971C69.0157 25.1358 70.1154 24.8552 71.329 24.8552C72.6944 24.8552 73.889 25.1586 74.913 25.7654C75.9447 26.3722 76.7145 27.2331 77.2228 28.3481C77.7385 29.4556 77.9244 30.7261 77.7803 32.1597H68.0344C68.0617 32.7308 68.2042 33.2504 68.4619 33.7184C68.7502 34.2342 69.1522 34.6362 69.6679 34.9244C70.1838 35.2127 70.7602 35.3568 71.3974 35.3568C71.8828 35.3492 72.3342 35.2658 72.7513 35.1066C73.1685 34.9397 73.5212 34.7159 73.8094 34.4352C74.1053 34.1546 74.3139 33.8361 74.4353 33.4796H77.6893C77.4921 34.3518 77.0977 35.1293 76.506 35.8119C75.9143 36.4871 75.171 37.0142 74.2759 37.3934C73.3809 37.7727 72.4024 37.9586 71.3405 37.9509ZM68.4733 29.0308C68.2915 29.3478 68.1655 29.6891 68.0954 30.0548H74.5558C74.5089 29.5928 74.3663 29.1718 74.128 28.7919C73.8549 28.3443 73.4833 27.9992 73.013 27.7565C72.5428 27.5062 72.0118 27.381 71.4202 27.381C70.7906 27.381 70.2179 27.5251 69.702 27.8134C69.1863 28.1016 68.7767 28.5074 68.4733 29.0308ZM94.517 25.1169C94.517 24.1005 94.7483 23.1978 95.211 22.409C95.6736 21.6125 96.3223 20.9943 97.1566 20.5544C97.9985 20.1069 98.9809 19.8755 100.103 19.8604V22.6251C99.58 22.6327 99.1325 22.7427 98.7609 22.9551C98.3968 23.1599 98.1161 23.4595 97.9189 23.8539C97.7374 24.2171 97.6394 24.638 97.625 25.1169H100.035V27.7451H97.6232V37.6552H94.517V27.7451H92.5145V25.1169H94.517ZM112.334 37.9281C111.067 37.9281 109.933 37.6513 108.932 37.0976C107.938 36.5363 107.157 35.7626 106.588 34.7765C106.027 33.7829 105.746 32.6565 105.746 31.3973C105.746 30.1306 106.027 29.0004 106.588 28.0067C107.157 27.0055 107.938 26.228 108.932 25.6743C109.933 25.1206 111.067 24.8437 112.334 24.8437C113.608 24.8437 114.746 25.1206 115.747 25.6743C116.756 26.228 117.541 27.0017 118.103 27.9954C118.664 28.989 118.948 30.123 118.956 31.3973C118.948 32.6565 118.664 33.7829 118.103 34.7765C117.549 35.7626 116.768 36.5363 115.759 37.0976C114.75 37.6513 113.608 37.9281 112.334 37.9281ZM112.334 35.0724C113.002 35.0724 113.593 34.9206 114.109 34.6173C114.625 34.3063 115.023 33.8739 115.304 33.3201C115.584 32.7589 115.725 32.1179 115.725 31.3973C115.725 30.6691 115.584 30.0244 115.304 29.4631C115.023 28.9018 114.625 28.4694 114.109 28.166C113.593 27.855 113.002 27.6995 112.334 27.6995C111.674 27.6995 111.086 27.855 110.57 28.166C110.062 28.4694 109.668 28.9018 109.387 29.4631C109.107 30.0244 108.97 30.6691 108.978 31.3973C108.978 32.1179 109.118 32.7589 109.399 33.3201C109.687 33.8739 110.081 34.3063 110.582 34.6173C111.09 34.9206 111.674 35.0724 112.334 35.0724ZM122.312 25.1169H118.854L122.597 37.6552H125.623L128.085 29.6469L130.743 37.6552H133.724L137.479 25.1169H134.35L132.22 32.9212L129.867 25.1169H126.841L124.499 33.0931L122.312 25.1169Z" fill="white"/>
<path fill-rule="evenodd" clip-rule="evenodd" d="M38.5695 17.6387L27.06 40.1387H16.2493L21.066 30.8137H20.8499C16.8761 35.9722 10.9471 39.368 2.49927 40.1387V30.9428C2.49927 30.9428 7.90358 30.6235 11.0806 27.2834H2.49927V17.6388H12.1438V25.5713L12.3602 25.5704L16.3014 17.6388H23.5953V25.521L23.8116 25.5207L27.9006 17.6387H38.5695ZM101.332 37.6552H104.438V19.8262H101.332V37.6552ZM84.2085 37.4731C84.8835 37.7537 85.57 37.8941 86.2678 37.8941C87.4207 37.8941 88.4523 37.6135 89.3626 37.0521C90.2727 36.4909 90.9782 35.7172 91.4788 34.7311C91.9795 33.7375 92.2297 32.611 92.2297 31.3519C92.2297 30.0927 91.9718 28.9664 91.4561 27.9727C90.9402 26.9791 90.2235 26.2092 89.3056 25.663C88.3878 25.1093 87.3448 24.8363 86.1767 24.8438C85.4335 24.8438 84.7205 24.988 84.0377 25.2762C83.3551 25.5644 82.7862 25.974 82.3311 26.505C82.296 26.5454 82.2618 26.5862 82.2287 26.6275V19.8376H79.1112V37.6552H82.206L82.1997 35.9907C82.2797 36.0889 82.3653 36.1847 82.4562 36.2785C82.9492 36.7867 83.5333 37.1849 84.2085 37.4731ZM87.3942 34.5946C86.886 34.9056 86.3057 35.0611 85.6533 35.0611C85.0086 35.0611 84.417 34.9017 83.8785 34.5832C83.3398 34.257 82.9113 33.8134 82.5927 33.252C82.2817 32.6907 82.1262 32.0535 82.1262 31.3405C82.1187 30.6275 82.2703 29.9904 82.5813 29.4291C82.9 28.8602 83.3285 28.4202 83.8671 28.1093C84.4056 27.7907 85.0011 27.6352 85.6533 27.6428C86.3057 27.6352 86.886 27.7869 87.3942 28.0979C87.91 28.4013 88.3043 28.8374 88.5775 29.4063C88.8581 29.9676 88.9985 30.6124 88.9985 31.3405C88.9985 32.0687 88.8581 32.7135 88.5775 33.2747C88.3043 33.8361 87.91 34.276 87.3942 34.5946ZM43.0693 20.9071H46.6192L49.7947 32.5041L53.1728 20.9071H56.1311L59.7947 32.2713L62.844 20.9071H66.098L61.2966 37.6552H58.236L54.5105 26.5532L51.0907 37.6552H47.996L43.0693 20.9071ZM71.3405 37.9509C70.104 37.9586 68.989 37.6854 67.9954 37.1318C67.0093 36.5704 66.2319 35.7929 65.6629 34.7993C65.1017 33.8057 64.821 32.6717 64.821 31.3973C64.821 30.1609 65.1093 29.0422 65.6858 28.0409C66.2622 27.0397 67.0434 26.2584 68.0295 25.6971C69.0157 25.1358 70.1154 24.8552 71.329 24.8552C72.6944 24.8552 73.889 25.1586 74.913 25.7654C75.9447 26.3722 76.7145 27.2331 77.2228 28.3481C77.7385 29.4556 77.9244 30.7261 77.7803 32.1597H68.0344C68.0617 32.7308 68.2042 33.2504 68.4619 33.7184C68.7502 34.2342 69.1522 34.6362 69.6679 34.9244C70.1838 35.2127 70.7602 35.3568 71.3974 35.3568C71.8828 35.3492 72.3342 35.2658 72.7513 35.1066C73.1685 34.9397 73.5212 34.7159 73.8094 34.4352C74.1053 34.1546 74.3139 33.8361 74.4353 33.4796H77.6893C77.4921 34.3518 77.0977 35.1293 76.506 35.8119C75.9143 36.4871 75.171 37.0142 74.2759 37.3934C73.3809 37.7727 72.4024 37.9586 71.3405 37.9509ZM68.4733 29.0308C68.2915 29.3478 68.1655 29.6891 68.0954 30.0548H74.5558C74.5089 29.5928 74.3663 29.1718 74.128 28.7919C73.8549 28.3443 73.4833 27.9992 73.013 27.7565C72.5428 27.5062 72.0118 27.381 71.4202 27.381C70.7906 27.381 70.2179 27.5251 69.702 27.8134C69.1863 28.1016 68.7767 28.5074 68.4733 29.0308ZM94.517 25.1169C94.517 24.1005 94.7483 23.1978 95.211 22.409C95.6736 21.6125 96.3223 20.9943 97.1566 20.5544C97.9985 20.1069 98.9809 19.8755 100.103 19.8604V22.6251C99.58 22.6327 99.1325 22.7427 98.7609 22.9551C98.3968 23.1599 98.1161 23.4595 97.9189 23.8539C97.7374 24.2171 97.6394 24.638 97.625 25.1169H100.035V27.7451H97.6232V37.6552H94.517V27.7451H92.5145V25.1169H94.517ZM112.334 37.9281C111.067 37.9281 109.933 37.6513 108.932 37.0976C107.938 36.5363 107.157 35.7626 106.588 34.7765C106.027 33.7829 105.746 32.6565 105.746 31.3973C105.746 30.1306 106.027 29.0004 106.588 28.0067C107.157 27.0055 107.938 26.228 108.932 25.6743C109.933 25.1206 111.067 24.8437 112.334 24.8437C113.608 24.8437 114.746 25.1206 115.747 25.6743C116.756 26.228 117.541 27.0017 118.103 27.9954C118.664 28.989 118.948 30.123 118.956 31.3973C118.948 32.6565 118.664 33.7829 118.103 34.7765C117.549 35.7626 116.768 36.5363 115.759 37.0976C114.75 37.6513 113.608 37.9281 112.334 37.9281ZM112.334 35.0724C113.002 35.0724 113.593 34.9206 114.109 34.6173C114.625 34.3063 115.023 33.8739 115.304 33.3201C115.584 32.7589 115.725 32.1179 115.725 31.3973C115.725 30.6691 115.584 30.0244 115.304 29.4631C115.023 28.9018 114.625 28.4694 114.109 28.166C113.593 27.855 113.002 27.6995 112.334 27.6995C111.674 27.6995 111.086 27.855 110.57 28.166C110.062 28.4694 109.668 28.9018 109.387 29.4631C109.107 30.0244 108.97 30.6691 108.978 31.3973C108.978 32.1179 109.118 32.7589 109.399 33.3201C109.687 33.8739 110.081 34.3063 110.582 34.6173C111.09 34.9206 111.674 35.0724 112.334 35.0724ZM122.312 25.1169H118.854L122.597 37.6552H125.623L128.085 29.6469L130.743 37.6552H133.724L137.479 25.1169H134.35L132.22 32.9212L129.867 25.1169H126.841L124.499 33.0931L122.312 25.1169Z" fill="white"/>
<path d="M38.5695 17.6387L27.06 40.1387H16.2493L21.066 30.8137H20.8499C16.8761 35.9722 10.9471 39.368 2.49927 40.1387V30.9428C2.49927 30.9428 7.90358 30.6235 11.0806 27.2834H2.49927V17.6388H12.1438V25.5713L12.3602 25.5704L16.3014 17.6388H23.5953V25.521L23.8116 25.5207L27.9006 17.6387H38.5695ZM101.332 37.6552H104.438V19.8262H101.332V37.6552ZM84.2085 37.4731C84.8835 37.7537 85.57 37.8941 86.2678 37.8941C87.4207 37.8941 88.4523 37.6135 89.3626 37.0521C90.2727 36.4909 90.9782 35.7172 91.4788 34.7311C91.9795 33.7375 92.2297 32.611 92.2297 31.3519C92.2297 30.0927 91.9718 28.9664 91.4561 27.9727C90.9402 26.9791 90.2235 26.2092 89.3056 25.663C88.3878 25.1093 87.3448 24.8363 86.1767 24.8438C85.4335 24.8438 84.7205 24.988 84.0377 25.2762C83.3551 25.5644 82.7862 25.974 82.3311 26.505C82.296 26.5454 82.2618 26.5862 82.2287 26.6275V19.8376H79.1112V37.6552H82.206L82.1997 35.9907C82.2797 36.0889 82.3653 36.1847 82.4562 36.2785C82.9492 36.7867 83.5333 37.1849 84.2085 37.4731ZM87.3942 34.5946C86.886 34.9056 86.3057 35.0611 85.6533 35.0611C85.0086 35.0611 84.417 34.9017 83.8785 34.5832C83.3398 34.257 82.9113 33.8134 82.5927 33.252C82.2817 32.6907 82.1262 32.0535 82.1262 31.3405C82.1187 30.6275 82.2703 29.9904 82.5813 29.4291C82.9 28.8602 83.3285 28.4202 83.8671 28.1093C84.4056 27.7907 85.0011 27.6352 85.6533 27.6428C86.3057 27.6352 86.886 27.7869 87.3942 28.0979C87.91 28.4013 88.3043 28.8374 88.5775 29.4063C88.8581 29.9676 88.9985 30.6124 88.9985 31.3405C88.9985 32.0687 88.8581 32.7135 88.5775 33.2747C88.3043 33.8361 87.91 34.276 87.3942 34.5946ZM43.0693 20.9071H46.6192L49.7947 32.5041L53.1728 20.9071H56.1311L59.7947 32.2713L62.844 20.9071H66.098L61.2966 37.6552H58.236L54.5105 26.5532L51.0907 37.6552H47.996L43.0693 20.9071ZM71.3405 37.9509C70.104 37.9586 68.989 37.6854 67.9954 37.1318C67.0093 36.5704 66.2319 35.7929 65.6629 34.7993C65.1017 33.8057 64.821 32.6717 64.821 31.3973C64.821 30.1609 65.1093 29.0422 65.6858 28.0409C66.2622 27.0397 67.0434 26.2584 68.0295 25.6971C69.0157 25.1358 70.1154 24.8552 71.329 24.8552C72.6944 24.8552 73.889 25.1586 74.913 25.7654C75.9447 26.3722 76.7145 27.2331 77.2228 28.3481C77.7385 29.4556 77.9244 30.7261 77.7803 32.1597H68.0344C68.0617 32.7308 68.2042 33.2504 68.4619 33.7184C68.7502 34.2342 69.1522 34.6362 69.6679 34.9244C70.1838 35.2127 70.7602 35.3568 71.3974 35.3568C71.8828 35.3492 72.3342 35.2658 72.7513 35.1066C73.1685 34.9397 73.5212 34.7159 73.8094 34.4352C74.1053 34.1546 74.3139 33.8361 74.4353 33.4796H77.6893C77.4921 34.3518 77.0977 35.1293 76.506 35.8119C75.9143 36.4871 75.171 37.0142 74.2759 37.3934C73.3809 37.7727 72.4024 37.9586 71.3405 37.9509ZM68.4733 29.0308C68.2915 29.3478 68.1655 29.6891 68.0954 30.0548H74.5558C74.5089 29.5928 74.3663 29.1718 74.128 28.7919C73.8549 28.3443 73.4833 27.9992 73.013 27.7565C72.5428 27.5062 72.0118 27.381 71.4202 27.381C70.7906 27.381 70.2179 27.5251 69.702 27.8134C69.1863 28.1016 68.7767 28.5074 68.4733 29.0308ZM94.517 25.1169C94.517 24.1005 94.7483 23.1978 95.211 22.409C95.6736 21.6125 96.3223 20.9943 97.1566 20.5544C97.9985 20.1069 98.9809 19.8755 100.103 19.8604V22.6251C99.58 22.6327 99.1325 22.7427 98.7609 22.9551C98.3968 23.1599 98.1161 23.4595 97.9189 23.8539C97.7374 24.2171 97.6394 24.638 97.625 25.1169H100.035V27.7451H97.6232V37.6552H94.517V27.7451H92.5145V25.1169H94.517ZM112.334 37.9281C111.067 37.9281 109.933 37.6513 108.932 37.0976C107.938 36.5363 107.157 35.7626 106.588 34.7765C106.027 33.7829 105.746 32.6565 105.746 31.3973C105.746 30.1306 106.027 29.0004 106.588 28.0067C107.157 27.0055 107.938 26.228 108.932 25.6743C109.933 25.1206 111.067 24.8437 112.334 24.8437C113.608 24.8437 114.746 25.1206 115.747 25.6743C116.756 26.228 117.541 27.0017 118.103 27.9954C118.664 28.989 118.948 30.123 118.956 31.3973C118.948 32.6565 118.664 33.7829 118.103 34.7765C117.549 35.7626 116.768 36.5363 115.759 37.0976C114.75 37.6513 113.608 37.9281 112.334 37.9281ZM112.334 35.0724C113.002 35.0724 113.593 34.9206 114.109 34.6173C114.625 34.3063 115.023 33.8739 115.304 33.3201C115.584 32.7589 115.725 32.1179 115.725 31.3973C115.725 30.6691 115.584 30.0244 115.304 29.4631C115.023 28.9018 114.625 28.4694 114.109 28.166C113.593 27.855 113.002 27.6995 112.334 27.6995C111.674 27.6995 111.086 27.855 110.57 28.166C110.062 28.4694 109.668 28.9018 109.387 29.4631C109.107 30.0244 108.97 30.6691 108.978 31.3973C108.978 32.1179 109.118 32.7589 109.399 33.3201C109.687 33.8739 110.081 34.3063 110.582 34.6173C111.09 34.9206 111.674 35.0724 112.334 35.0724ZM122.312 25.1169H118.854L122.597 37.6552H125.623L128.085 29.6469L130.743 37.6552H133.724L137.479 25.1169H134.35L132.22 32.9212L129.867 25.1169H126.841L124.499 33.0931L122.312 25.1169Z" fill="white"/>
<path fill-rule="evenodd" clip-rule="evenodd" d="M38.5695 17.6387L27.06 40.1387H16.2493L21.066 30.8137H20.8499C16.8761 35.9722 10.9471 39.368 2.49927 40.1387V30.9428C2.49927 30.9428 7.90358 30.6235 11.0806 27.2834H2.49927V17.6388H12.1438V25.5713L12.3602 25.5704L16.3014 17.6388H23.5953V25.521L23.8116 25.5207L27.9006 17.6387H38.5695ZM101.332 37.6552H104.438V19.8262H101.332V37.6552ZM84.2085 37.4731C84.8835 37.7537 85.57 37.8941 86.2678 37.8941C87.4207 37.8941 88.4523 37.6135 89.3626 37.0521C90.2727 36.4909 90.9782 35.7172 91.4788 34.7311C91.9795 33.7375 92.2297 32.611 92.2297 31.3519C92.2297 30.0927 91.9718 28.9664 91.4561 27.9727C90.9402 26.9791 90.2235 26.2092 89.3056 25.663C88.3878 25.1093 87.3448 24.8363 86.1767 24.8438C85.4335 24.8438 84.7205 24.988 84.0377 25.2762C83.3551 25.5644 82.7862 25.974 82.3311 26.505C82.296 26.5454 82.2618 26.5862 82.2287 26.6275V19.8376H79.1112V37.6552H82.206L82.1997 35.9907C82.2797 36.0889 82.3653 36.1847 82.4562 36.2785C82.9492 36.7867 83.5333 37.1849 84.2085 37.4731ZM87.3942 34.5946C86.886 34.9056 86.3057 35.0611 85.6533 35.0611C85.0086 35.0611 84.417 34.9017 83.8785 34.5832C83.3398 34.257 82.9113 33.8134 82.5927 33.252C82.2817 32.6907 82.1262 32.0535 82.1262 31.3405C82.1187 30.6275 82.2703 29.9904 82.5813 29.4291C82.9 28.8602 83.3285 28.4202 83.8671 28.1093C84.4056 27.7907 85.0011 27.6352 85.6533 27.6428C86.3057 27.6352 86.886 27.7869 87.3942 28.0979C87.91 28.4013 88.3043 28.8374 88.5775 29.4063C88.8581 29.9676 88.9985 30.6124 88.9985 31.3405C88.9985 32.0687 88.8581 32.7135 88.5775 33.2747C88.3043 33.8361 87.91 34.276 87.3942 34.5946ZM43.0693 20.9071H46.6192L49.7947 32.5041L53.1728 20.9071H56.1311L59.7947 32.2713L62.844 20.9071H66.098L61.2966 37.6552H58.236L54.5105 26.5532L51.0907 37.6552H47.996L43.0693 20.9071ZM71.3405 37.9509C70.104 37.9586 68.989 37.6854 67.9954 37.1318C67.0093 36.5704 66.2319 35.7929 65.6629 34.7993C65.1017 33.8057 64.821 32.6717 64.821 31.3973C64.821 30.1609 65.1093 29.0422 65.6858 28.0409C66.2622 27.0397 67.0434 26.2584 68.0295 25.6971C69.0157 25.1358 70.1154 24.8552 71.329 24.8552C72.6944 24.8552 73.889 25.1586 74.913 25.7654C75.9447 26.3722 76.7145 27.2331 77.2228 28.3481C77.7385 29.4556 77.9244 30.7261 77.7803 32.1597H68.0344C68.0617 32.7308 68.2042 33.2504 68.4619 33.7184C68.7502 34.2342 69.1522 34.6362 69.6679 34.9244C70.1838 35.2127 70.7602 35.3568 71.3974 35.3568C71.8828 35.3492 72.3342 35.2658 72.7513 35.1066C73.1685 34.9397 73.5212 34.7159 73.8094 34.4352C74.1053 34.1546 74.3139 33.8361 74.4353 33.4796H77.6893C77.4921 34.3518 77.0977 35.1293 76.506 35.8119C75.9143 36.4871 75.171 37.0142 74.2759 37.3934C73.3809 37.7727 72.4024 37.9586 71.3405 37.9509ZM68.4733 29.0308C68.2915 29.3478 68.1655 29.6891 68.0954 30.0548H74.5558C74.5089 29.5928 74.3663 29.1718 74.128 28.7919C73.8549 28.3443 73.4833 27.9992 73.013 27.7565C72.5428 27.5062 72.0118 27.381 71.4202 27.381C70.7906 27.381 70.2179 27.5251 69.702 27.8134C69.1863 28.1016 68.7767 28.5074 68.4733 29.0308ZM94.517 25.1169C94.517 24.1005 94.7483 23.1978 95.211 22.409C95.6736 21.6125 96.3223 20.9943 97.1566 20.5544C97.9985 20.1069 98.9809 19.8755 100.103 19.8604V22.6251C99.58 22.6327 99.1325 22.7427 98.7609 22.9551C98.3968 23.1599 98.1161 23.4595 97.9189 23.8539C97.7374 24.2171 97.6394 24.638 97.625 25.1169H100.035V27.7451H97.6232V37.6552H94.517V27.7451H92.5145V25.1169H94.517ZM112.334 37.9281C111.067 37.9281 109.933 37.6513 108.932 37.0976C107.938 36.5363 107.157 35.7626 106.588 34.7765C106.027 33.7829 105.746 32.6565 105.746 31.3973C105.746 30.1306 106.027 29.0004 106.588 28.0067C107.157 27.0055 107.938 26.228 108.932 25.6743C109.933 25.1206 111.067 24.8437 112.334 24.8437C113.608 24.8437 114.746 25.1206 115.747 25.6743C116.756 26.228 117.541 27.0017 118.103 27.9954C118.664 28.989 118.948 30.123 118.956 31.3973C118.948 32.6565 118.664 33.7829 118.103 34.7765C117.549 35.7626 116.768 36.5363 115.759 37.0976C114.75 37.6513 113.608 37.9281 112.334 37.9281ZM112.334 35.0724C113.002 35.0724 113.593 34.9206 114.109 34.6173C114.625 34.3063 115.023 33.8739 115.304 33.3201C115.584 32.7589 115.725 32.1179 115.725 31.3973C115.725 30.6691 115.584 30.0244 115.304 29.4631C115.023 28.9018 114.625 28.4694 114.109 28.166C113.593 27.855 113.002 27.6995 112.334 27.6995C111.674 27.6995 111.086 27.855 110.57 28.166C110.062 28.4694 109.668 28.9018 109.387 29.4631C109.107 30.0244 108.97 30.6691 108.978 31.3973C108.978 32.1179 109.118 32.7589 109.399 33.3201C109.687 33.8739 110.081 34.3063 110.582 34.6173C111.09 34.9206 111.674 35.0724 112.334 35.0724ZM122.312 25.1169H118.854L122.597 37.6552H125.623L128.085 29.6469L130.743 37.6552H133.724L137.479 25.1169H134.35L132.22 32.9212L129.867 25.1169H126.841L124.499 33.0931L122.312 25.1169Z" fill="white"/>
<path d="M38.5695 17.6387L27.06 40.1387H16.2493L21.066 30.8137H20.8499C16.8761 35.9722 10.9471 39.368 2.49927 40.1387V30.9428C2.49927 30.9428 7.90358 30.6235 11.0806 27.2834H2.49927V17.6388H12.1438V25.5713L12.3602 25.5704L16.3014 17.6388H23.5953V25.521L23.8116 25.5207L27.9006 17.6387H38.5695ZM101.332 37.6552H104.438V19.8262H101.332V37.6552ZM84.2085 37.4731C84.8835 37.7537 85.57 37.8941 86.2678 37.8941C87.4207 37.8941 88.4523 37.6135 89.3626 37.0521C90.2727 36.4909 90.9782 35.7172 91.4788 34.7311C91.9795 33.7375 92.2297 32.611 92.2297 31.3519C92.2297 30.0927 91.9718 28.9664 91.4561 27.9727C90.9402 26.9791 90.2235 26.2092 89.3056 25.663C88.3878 25.1093 87.3448 24.8363 86.1767 24.8438C85.4335 24.8438 84.7205 24.988 84.0377 25.2762C83.3551 25.5644 82.7862 25.974 82.3311 26.505C82.296 26.5454 82.2618 26.5862 82.2287 26.6275V19.8376H79.1112V37.6552H82.206L82.1997 35.9907C82.2797 36.0889 82.3653 36.1847 82.4562 36.2785C82.9492 36.7867 83.5333 37.1849 84.2085 37.4731ZM87.3942 34.5946C86.886 34.9056 86.3057 35.0611 85.6533 35.0611C85.0086 35.0611 84.417 34.9017 83.8785 34.5832C83.3398 34.257 82.9113 33.8134 82.5927 33.252C82.2817 32.6907 82.1262 32.0535 82.1262 31.3405C82.1187 30.6275 82.2703 29.9904 82.5813 29.4291C82.9 28.8602 83.3285 28.4202 83.8671 28.1093C84.4056 27.7907 85.0011 27.6352 85.6533 27.6428C86.3057 27.6352 86.886 27.7869 87.3942 28.0979C87.91 28.4013 88.3043 28.8374 88.5775 29.4063C88.8581 29.9676 88.9985 30.6124 88.9985 31.3405C88.9985 32.0687 88.8581 32.7135 88.5775 33.2747C88.3043 33.8361 87.91 34.276 87.3942 34.5946ZM43.0693 20.9071H46.6192L49.7947 32.5041L53.1728 20.9071H56.1311L59.7947 32.2713L62.844 20.9071H66.098L61.2966 37.6552H58.236L54.5105 26.5532L51.0907 37.6552H47.996L43.0693 20.9071ZM71.3405 37.9509C70.104 37.9586 68.989 37.6854 67.9954 37.1318C67.0093 36.5704 66.2319 35.7929 65.6629 34.7993C65.1017 33.8057 64.821 32.6717 64.821 31.3973C64.821 30.1609 65.1093 29.0422 65.6858 28.0409C66.2622 27.0397 67.0434 26.2584 68.0295 25.6971C69.0157 25.1358 70.1154 24.8552 71.329 24.8552C72.6944 24.8552 73.889 25.1586 74.913 25.7654C75.9447 26.3722 76.7145 27.2331 77.2228 28.3481C77.7385 29.4556 77.9244 30.7261 77.7803 32.1597H68.0344C68.0617 32.7308 68.2042 33.2504 68.4619 33.7184C68.7502 34.2342 69.1522 34.6362 69.6679 34.9244C70.1838 35.2127 70.7602 35.3568 71.3974 35.3568C71.8828 35.3492 72.3342 35.2658 72.7513 35.1066C73.1685 34.9397 73.5212 34.7159 73.8094 34.4352C74.1053 34.1546 74.3139 33.8361 74.4353 33.4796H77.6893C77.4921 34.3518 77.0977 35.1293 76.506 35.8119C75.9143 36.4871 75.171 37.0142 74.2759 37.3934C73.3809 37.7727 72.4024 37.9586 71.3405 37.9509ZM68.4733 29.0308C68.2915 29.3478 68.1655 29.6891 68.0954 30.0548H74.5558C74.5089 29.5928 74.3663 29.1718 74.128 28.7919C73.8549 28.3443 73.4833 27.9992 73.013 27.7565C72.5428 27.5062 72.0118 27.381 71.4202 27.381C70.7906 27.381 70.2179 27.5251 69.702 27.8134C69.1863 28.1016 68.7767 28.5074 68.4733 29.0308ZM94.517 25.1169C94.517 24.1005 94.7483 23.1978 95.211 22.409C95.6736 21.6125 96.3223 20.9943 97.1566 20.5544C97.9985 20.1069 98.9809 19.8755 100.103 19.8604V22.6251C99.58 22.6327 99.1325 22.7427 98.7609 22.9551C98.3968 23.1599 98.1161 23.4595 97.9189 23.8539C97.7374 24.2171 97.6394 24.638 97.625 25.1169H100.035V27.7451H97.6232V37.6552H94.517V27.7451H92.5145V25.1169H94.517ZM112.334 37.9281C111.067 37.9281 109.933 37.6513 108.932 37.0976C107.938 36.5363 107.157 35.7626 106.588 34.7765C106.027 33.7829 105.746 32.6565 105.746 31.3973C105.746 30.1306 106.027 29.0004 106.588 28.0067C107.157 27.0055 107.938 26.228 108.932 25.6743C109.933 25.1206 111.067 24.8437 112.334 24.8437C113.608 24.8437 114.746 25.1206 115.747 25.6743C116.756 26.228 117.541 27.0017 118.103 27.9954C118.664 28.989 118.948 30.123 118.956 31.3973C118.948 32.6565 118.664 33.7829 118.103 34.7765C117.549 35.7626 116.768 36.5363 115.759 37.0976C114.75 37.6513 113.608 37.9281 112.334 37.9281ZM112.334 35.0724C113.002 35.0724 113.593 34.9206 114.109 34.6173C114.625 34.3063 115.023 33.8739 115.304 33.3201C115.584 32.7589 115.725 32.1179 115.725 31.3973C115.725 30.6691 115.584 30.0244 115.304 29.4631C115.023 28.9018 114.625 28.4694 114.109 28.166C113.593 27.855 113.002 27.6995 112.334 27.6995C111.674 27.6995 111.086 27.855 110.57 28.166C110.062 28.4694 109.668 28.9018 109.387 29.4631C109.107 30.0244 108.97 30.6691 108.978 31.3973C108.978 32.1179 109.118 32.7589 109.399 33.3201C109.687 33.8739 110.081 34.3063 110.582 34.6173C111.09 34.9206 111.674 35.0724 112.334 35.0724ZM122.312 25.1169H118.854L122.597 37.6552H125.623L128.085 29.6469L130.743 37.6552H133.724L137.479 25.1169H134.35L132.22 32.9212L129.867 25.1169H126.841L124.499 33.0931L122.312 25.1169Z" fill="white"/>
</svg>
