<svg width="140" height="57" viewBox="0 0 140 57" fill="none" xmlns="http://www.w3.org/2000/svg">
<path fill-rule="evenodd" clip-rule="evenodd" d="M38.5698 17.1392L27.0603 39.6392H16.2495L21.0663 30.3142H20.8501C16.8764 35.4727 10.9474 38.8685 2.49951 39.6392V30.4433C2.49951 30.4433 7.90382 30.124 11.0809 26.7838H2.49951V17.1393H12.144V25.0718L12.3605 25.0709L16.3016 17.1393H23.5955V25.0215L23.8119 25.0212L27.9009 17.1392H38.5698ZM101.333 37.1557H104.439V19.3267H101.333V37.1557ZM84.2087 36.9736C84.8837 37.2542 85.5702 37.3946 86.2681 37.3946C87.421 37.3946 88.4526 37.114 89.3628 36.5526C90.2729 35.9914 90.9784 35.2177 91.4791 34.2316C91.9797 33.238 92.2299 32.1115 92.2299 30.8524C92.2299 29.5932 91.9721 28.4669 91.4563 27.4732C90.9405 26.4796 90.2237 25.7097 89.3058 25.1635C88.3881 24.6098 87.3451 24.3367 86.1769 24.3443C85.4337 24.3443 84.7207 24.4884 84.038 24.7767C83.3553 25.0649 82.7865 25.4745 82.3313 26.0055C82.2962 26.0459 82.2621 26.0867 82.229 26.128V19.3381H79.1115V37.1557H82.2062L82.2 35.4912C82.28 35.5894 82.3656 35.6852 82.4565 35.779C82.9494 36.2872 83.5336 36.6854 84.2087 36.9736ZM87.3944 34.0951C86.8862 34.4061 86.3059 34.5616 85.6536 34.5616C85.0088 34.5616 84.4172 34.4022 83.8787 34.0837C83.3401 33.7575 82.9116 33.3139 82.5929 32.7525C82.282 32.1912 82.1264 31.554 82.1264 30.841C82.1189 30.128 82.2706 29.4909 82.5816 28.9296C82.9002 28.3607 83.3287 27.9207 83.8673 27.6097C84.4058 27.2912 85.0013 27.1357 85.6536 27.1433C86.3059 27.1357 86.8862 27.2874 87.3944 27.5984C87.9102 27.9018 88.3046 28.3379 88.5777 28.9068C88.8583 29.4681 88.9987 30.1129 88.9987 30.841C88.9987 31.5692 88.8583 32.214 88.5777 32.7752C88.3046 33.3366 87.9102 33.7765 87.3944 34.0951ZM43.0696 20.4076H46.6195L49.795 32.0046L53.1731 20.4076H56.1313L59.795 31.7718L62.8442 20.4076H66.0982L61.2968 37.1557H58.2362L54.5107 26.0537L51.091 37.1557H47.9962L43.0696 20.4076ZM71.3408 37.4514C70.1043 37.4591 68.9893 37.1859 67.9957 36.6323C67.0095 36.0709 66.2322 35.2934 65.6632 34.2998C65.1019 33.3062 64.8213 32.1722 64.8213 30.8978C64.8213 29.6614 65.1095 28.5427 65.686 27.5414C66.2624 26.5402 67.0437 25.7589 68.0298 25.1976C69.0159 24.6363 70.1157 24.3557 71.3293 24.3557C72.6947 24.3557 73.8893 24.6591 74.9133 25.2659C75.9449 25.8727 76.7148 26.7336 77.223 27.8486C77.7388 28.9561 77.9247 30.2266 77.7805 31.6602H68.0347C68.0619 32.2313 68.2044 32.7509 68.4622 33.2189C68.7504 33.7347 69.1524 34.1367 69.6682 34.4249C70.184 34.7132 70.7604 34.8573 71.3977 34.8573C71.883 34.8497 72.3344 34.7663 72.7515 34.6071C73.1688 34.4402 73.5214 34.2164 73.8097 33.9357C74.1055 33.6551 74.3142 33.3366 74.4355 32.9801H77.6895C77.4923 33.8523 77.0979 34.6298 76.5063 35.3124C75.9145 35.9876 75.1713 36.5147 74.2762 36.8939C73.3812 37.2732 72.4027 37.4591 71.3408 37.4514ZM68.4735 28.5313C68.2918 28.8483 68.1658 29.1896 68.0957 29.5553H74.556C74.5092 29.0933 74.3665 28.6723 74.1283 28.2924C73.8552 27.8448 73.4835 27.4997 73.0133 27.257C72.543 27.0067 72.012 26.8815 71.4204 26.8815C70.7908 26.8815 70.2182 27.0256 69.7023 27.3139C69.1865 27.6021 68.7769 28.0079 68.4735 28.5313ZM94.5173 24.6174C94.5173 23.601 94.7485 22.6983 95.2113 21.9095C95.6739 21.113 96.3225 20.4948 97.1569 20.0549C97.9988 19.6074 98.9811 19.376 100.104 19.3608V22.1256C99.5803 22.1332 99.1328 22.2432 98.7611 22.4556C98.397 22.6604 98.1164 22.96 97.9191 23.3544C97.7376 23.7176 97.6396 24.1385 97.6253 24.6174H100.035V27.2456H97.6234V37.1557H94.5173V27.2456H92.5148V24.6174H94.5173ZM112.334 37.4286C111.068 37.4286 109.934 37.1517 108.932 36.5981C107.939 36.0367 107.157 35.2631 106.589 34.277C106.027 33.2834 105.747 32.157 105.747 30.8977C105.747 29.6311 106.027 28.5009 106.589 27.5072C107.157 26.506 107.939 25.7285 108.932 25.1748C109.934 24.6211 111.068 24.3442 112.334 24.3442C113.609 24.3442 114.746 24.6211 115.748 25.1748C116.756 25.7285 117.542 26.5022 118.103 27.4959C118.664 28.4895 118.949 29.6235 118.956 30.8977C118.949 32.157 118.664 33.2834 118.103 34.277C117.549 35.2631 116.768 36.0367 115.759 36.5981C114.75 37.1517 113.609 37.4286 112.334 37.4286ZM112.334 34.5729C113.002 34.5729 113.593 34.4211 114.109 34.1177C114.625 33.8067 115.023 33.3744 115.304 32.8206C115.585 32.2594 115.725 31.6184 115.725 30.8977C115.725 30.1696 115.585 29.5249 115.304 28.9636C115.023 28.4023 114.625 27.9699 114.109 27.6665C113.593 27.3555 113.002 27.2 112.334 27.2C111.674 27.2 111.087 27.3555 110.571 27.6665C110.063 27.9699 109.668 28.4023 109.387 28.9636C109.107 29.5249 108.97 30.1696 108.978 30.8977C108.978 31.6184 109.118 32.2594 109.399 32.8206C109.687 33.3744 110.081 33.8067 110.582 34.1177C111.09 34.4211 111.674 34.5729 112.334 34.5729ZM122.313 24.6173H118.854L122.597 37.1557H125.624L128.086 29.1474L130.743 37.1557H133.724L137.479 24.6173H134.351L132.221 32.4217L129.867 24.6173H126.841L124.499 32.5936L122.313 24.6173Z" fill="black"/>
<path d="M38.5698 17.1392L27.0603 39.6392H16.2495L21.0663 30.3142H20.8501C16.8764 35.4727 10.9474 38.8685 2.49951 39.6392V30.4433C2.49951 30.4433 7.90382 30.124 11.0809 26.7838H2.49951V17.1393H12.144V25.0718L12.3605 25.0709L16.3016 17.1393H23.5955V25.0215L23.8119 25.0212L27.9009 17.1392H38.5698ZM101.333 37.1557H104.439V19.3267H101.333V37.1557ZM84.2087 36.9736C84.8837 37.2542 85.5702 37.3946 86.2681 37.3946C87.421 37.3946 88.4526 37.114 89.3628 36.5526C90.2729 35.9914 90.9784 35.2177 91.4791 34.2316C91.9797 33.238 92.2299 32.1115 92.2299 30.8524C92.2299 29.5932 91.9721 28.4669 91.4563 27.4732C90.9405 26.4796 90.2237 25.7097 89.3058 25.1635C88.3881 24.6098 87.3451 24.3367 86.1769 24.3443C85.4337 24.3443 84.7207 24.4884 84.038 24.7767C83.3553 25.0649 82.7865 25.4745 82.3313 26.0055C82.2962 26.0459 82.2621 26.0867 82.229 26.128V19.3381H79.1115V37.1557H82.2062L82.2 35.4912C82.28 35.5894 82.3656 35.6852 82.4565 35.779C82.9494 36.2872 83.5336 36.6854 84.2087 36.9736ZM87.3944 34.0951C86.8862 34.4061 86.3059 34.5616 85.6536 34.5616C85.0088 34.5616 84.4172 34.4022 83.8787 34.0837C83.3401 33.7575 82.9116 33.3139 82.5929 32.7525C82.282 32.1912 82.1264 31.554 82.1264 30.841C82.1189 30.128 82.2706 29.4909 82.5816 28.9296C82.9002 28.3607 83.3287 27.9207 83.8673 27.6097C84.4058 27.2912 85.0013 27.1357 85.6536 27.1433C86.3059 27.1357 86.8862 27.2874 87.3944 27.5984C87.9102 27.9018 88.3046 28.3379 88.5777 28.9068C88.8583 29.4681 88.9987 30.1129 88.9987 30.841C88.9987 31.5692 88.8583 32.214 88.5777 32.7752C88.3046 33.3366 87.9102 33.7765 87.3944 34.0951ZM43.0696 20.4076H46.6195L49.795 32.0046L53.1731 20.4076H56.1313L59.795 31.7718L62.8442 20.4076H66.0982L61.2968 37.1557H58.2362L54.5107 26.0537L51.091 37.1557H47.9962L43.0696 20.4076ZM71.3408 37.4514C70.1043 37.4591 68.9893 37.1859 67.9957 36.6323C67.0095 36.0709 66.2322 35.2934 65.6632 34.2998C65.1019 33.3062 64.8213 32.1722 64.8213 30.8978C64.8213 29.6614 65.1095 28.5427 65.686 27.5414C66.2624 26.5402 67.0437 25.7589 68.0298 25.1976C69.0159 24.6363 70.1157 24.3557 71.3293 24.3557C72.6947 24.3557 73.8893 24.6591 74.9133 25.2659C75.9449 25.8727 76.7148 26.7336 77.223 27.8486C77.7388 28.9561 77.9247 30.2266 77.7805 31.6602H68.0347C68.0619 32.2313 68.2044 32.7509 68.4622 33.2189C68.7504 33.7347 69.1524 34.1367 69.6682 34.4249C70.184 34.7132 70.7604 34.8573 71.3977 34.8573C71.883 34.8497 72.3344 34.7663 72.7515 34.6071C73.1688 34.4402 73.5214 34.2164 73.8097 33.9357C74.1055 33.6551 74.3142 33.3366 74.4355 32.9801H77.6895C77.4923 33.8523 77.0979 34.6298 76.5063 35.3124C75.9145 35.9876 75.1713 36.5147 74.2762 36.8939C73.3812 37.2732 72.4027 37.4591 71.3408 37.4514ZM68.4735 28.5313C68.2918 28.8483 68.1658 29.1896 68.0957 29.5553H74.556C74.5092 29.0933 74.3665 28.6723 74.1283 28.2924C73.8552 27.8448 73.4835 27.4997 73.0133 27.257C72.543 27.0067 72.012 26.8815 71.4204 26.8815C70.7908 26.8815 70.2182 27.0256 69.7023 27.3139C69.1865 27.6021 68.7769 28.0079 68.4735 28.5313ZM94.5173 24.6174C94.5173 23.601 94.7485 22.6983 95.2113 21.9095C95.6739 21.113 96.3225 20.4948 97.1569 20.0549C97.9988 19.6074 98.9811 19.376 100.104 19.3608V22.1256C99.5803 22.1332 99.1328 22.2432 98.7611 22.4556C98.397 22.6604 98.1164 22.96 97.9191 23.3544C97.7376 23.7176 97.6396 24.1385 97.6253 24.6174H100.035V27.2456H97.6234V37.1557H94.5173V27.2456H92.5148V24.6174H94.5173ZM112.334 37.4286C111.068 37.4286 109.934 37.1517 108.932 36.5981C107.939 36.0367 107.157 35.2631 106.589 34.277C106.027 33.2834 105.747 32.157 105.747 30.8977C105.747 29.6311 106.027 28.5009 106.589 27.5072C107.157 26.506 107.939 25.7285 108.932 25.1748C109.934 24.6211 111.068 24.3442 112.334 24.3442C113.609 24.3442 114.746 24.6211 115.748 25.1748C116.756 25.7285 117.542 26.5022 118.103 27.4959C118.664 28.4895 118.949 29.6235 118.956 30.8977C118.949 32.157 118.664 33.2834 118.103 34.277C117.549 35.2631 116.768 36.0367 115.759 36.5981C114.75 37.1517 113.609 37.4286 112.334 37.4286ZM112.334 34.5729C113.002 34.5729 113.593 34.4211 114.109 34.1177C114.625 33.8067 115.023 33.3744 115.304 32.8206C115.585 32.2594 115.725 31.6184 115.725 30.8977C115.725 30.1696 115.585 29.5249 115.304 28.9636C115.023 28.4023 114.625 27.9699 114.109 27.6665C113.593 27.3555 113.002 27.2 112.334 27.2C111.674 27.2 111.087 27.3555 110.571 27.6665C110.063 27.9699 109.668 28.4023 109.387 28.9636C109.107 29.5249 108.97 30.1696 108.978 30.8977C108.978 31.6184 109.118 32.2594 109.399 32.8206C109.687 33.3744 110.081 33.8067 110.582 34.1177C111.09 34.4211 111.674 34.5729 112.334 34.5729ZM122.313 24.6173H118.854L122.597 37.1557H125.624L128.086 29.1474L130.743 37.1557H133.724L137.479 24.6173H134.351L132.221 32.4217L129.867 24.6173H126.841L124.499 32.5936L122.313 24.6173Z" fill="black"/>
<path fill-rule="evenodd" clip-rule="evenodd" d="M38.5698 17.1392L27.0603 39.6392H16.2495L21.0663 30.3142H20.8501C16.8764 35.4727 10.9474 38.8685 2.49951 39.6392V30.4433C2.49951 30.4433 7.90382 30.124 11.0809 26.7838H2.49951V17.1393H12.144V25.0718L12.3605 25.0709L16.3016 17.1393H23.5955V25.0215L23.8119 25.0212L27.9009 17.1392H38.5698ZM101.333 37.1557H104.439V19.3267H101.333V37.1557ZM84.2087 36.9736C84.8837 37.2542 85.5702 37.3946 86.2681 37.3946C87.421 37.3946 88.4526 37.114 89.3628 36.5526C90.2729 35.9914 90.9784 35.2177 91.4791 34.2316C91.9797 33.238 92.2299 32.1115 92.2299 30.8524C92.2299 29.5932 91.9721 28.4669 91.4563 27.4732C90.9405 26.4796 90.2237 25.7097 89.3058 25.1635C88.3881 24.6098 87.3451 24.3367 86.1769 24.3443C85.4337 24.3443 84.7207 24.4884 84.038 24.7767C83.3553 25.0649 82.7865 25.4745 82.3313 26.0055C82.2962 26.0459 82.2621 26.0867 82.229 26.128V19.3381H79.1115V37.1557H82.2062L82.2 35.4912C82.28 35.5894 82.3656 35.6852 82.4565 35.779C82.9494 36.2872 83.5336 36.6854 84.2087 36.9736ZM87.3944 34.0951C86.8862 34.4061 86.3059 34.5616 85.6536 34.5616C85.0088 34.5616 84.4172 34.4022 83.8787 34.0837C83.3401 33.7575 82.9116 33.3139 82.5929 32.7525C82.282 32.1912 82.1264 31.554 82.1264 30.841C82.1189 30.128 82.2706 29.4909 82.5816 28.9296C82.9002 28.3607 83.3287 27.9207 83.8673 27.6097C84.4058 27.2912 85.0013 27.1357 85.6536 27.1433C86.3059 27.1357 86.8862 27.2874 87.3944 27.5984C87.9102 27.9018 88.3046 28.3379 88.5777 28.9068C88.8583 29.4681 88.9987 30.1129 88.9987 30.841C88.9987 31.5692 88.8583 32.214 88.5777 32.7752C88.3046 33.3366 87.9102 33.7765 87.3944 34.0951ZM43.0696 20.4076H46.6195L49.795 32.0046L53.1731 20.4076H56.1313L59.795 31.7718L62.8442 20.4076H66.0982L61.2968 37.1557H58.2362L54.5107 26.0537L51.091 37.1557H47.9962L43.0696 20.4076ZM71.3408 37.4514C70.1043 37.4591 68.9893 37.1859 67.9957 36.6323C67.0095 36.0709 66.2322 35.2934 65.6632 34.2998C65.1019 33.3062 64.8213 32.1722 64.8213 30.8978C64.8213 29.6614 65.1095 28.5427 65.686 27.5414C66.2624 26.5402 67.0437 25.7589 68.0298 25.1976C69.0159 24.6363 70.1157 24.3557 71.3293 24.3557C72.6947 24.3557 73.8893 24.6591 74.9133 25.2659C75.9449 25.8727 76.7148 26.7336 77.223 27.8486C77.7388 28.9561 77.9247 30.2266 77.7805 31.6602H68.0347C68.0619 32.2313 68.2044 32.7509 68.4622 33.2189C68.7504 33.7347 69.1524 34.1367 69.6682 34.4249C70.184 34.7132 70.7604 34.8573 71.3977 34.8573C71.883 34.8497 72.3344 34.7663 72.7515 34.6071C73.1688 34.4402 73.5214 34.2164 73.8097 33.9357C74.1055 33.6551 74.3142 33.3366 74.4355 32.9801H77.6895C77.4923 33.8523 77.0979 34.6298 76.5063 35.3124C75.9145 35.9876 75.1713 36.5147 74.2762 36.8939C73.3812 37.2732 72.4027 37.4591 71.3408 37.4514ZM68.4735 28.5313C68.2918 28.8483 68.1658 29.1896 68.0957 29.5553H74.556C74.5092 29.0933 74.3665 28.6723 74.1283 28.2924C73.8552 27.8448 73.4835 27.4997 73.0133 27.257C72.543 27.0067 72.012 26.8815 71.4204 26.8815C70.7908 26.8815 70.2182 27.0256 69.7023 27.3139C69.1865 27.6021 68.7769 28.0079 68.4735 28.5313ZM94.5173 24.6174C94.5173 23.601 94.7485 22.6983 95.2113 21.9095C95.6739 21.113 96.3225 20.4948 97.1569 20.0549C97.9988 19.6074 98.9811 19.376 100.104 19.3608V22.1256C99.5803 22.1332 99.1328 22.2432 98.7611 22.4556C98.397 22.6604 98.1164 22.96 97.9191 23.3544C97.7376 23.7176 97.6396 24.1385 97.6253 24.6174H100.035V27.2456H97.6234V37.1557H94.5173V27.2456H92.5148V24.6174H94.5173ZM112.334 37.4286C111.068 37.4286 109.934 37.1517 108.932 36.5981C107.939 36.0367 107.157 35.2631 106.589 34.277C106.027 33.2834 105.747 32.157 105.747 30.8977C105.747 29.6311 106.027 28.5009 106.589 27.5072C107.157 26.506 107.939 25.7285 108.932 25.1748C109.934 24.6211 111.068 24.3442 112.334 24.3442C113.609 24.3442 114.746 24.6211 115.748 25.1748C116.756 25.7285 117.542 26.5022 118.103 27.4959C118.664 28.4895 118.949 29.6235 118.956 30.8977C118.949 32.157 118.664 33.2834 118.103 34.277C117.549 35.2631 116.768 36.0367 115.759 36.5981C114.75 37.1517 113.609 37.4286 112.334 37.4286ZM112.334 34.5729C113.002 34.5729 113.593 34.4211 114.109 34.1177C114.625 33.8067 115.023 33.3744 115.304 32.8206C115.585 32.2594 115.725 31.6184 115.725 30.8977C115.725 30.1696 115.585 29.5249 115.304 28.9636C115.023 28.4023 114.625 27.9699 114.109 27.6665C113.593 27.3555 113.002 27.2 112.334 27.2C111.674 27.2 111.087 27.3555 110.571 27.6665C110.063 27.9699 109.668 28.4023 109.387 28.9636C109.107 29.5249 108.97 30.1696 108.978 30.8977C108.978 31.6184 109.118 32.2594 109.399 32.8206C109.687 33.3744 110.081 33.8067 110.582 34.1177C111.09 34.4211 111.674 34.5729 112.334 34.5729ZM122.313 24.6173H118.854L122.597 37.1557H125.624L128.086 29.1474L130.743 37.1557H133.724L137.479 24.6173H134.351L132.221 32.4217L129.867 24.6173H126.841L124.499 32.5936L122.313 24.6173Z" fill="black"/>
<path d="M38.5698 17.1392L27.0603 39.6392H16.2495L21.0663 30.3142H20.8501C16.8764 35.4727 10.9474 38.8685 2.49951 39.6392V30.4433C2.49951 30.4433 7.90382 30.124 11.0809 26.7838H2.49951V17.1393H12.144V25.0718L12.3605 25.0709L16.3016 17.1393H23.5955V25.0215L23.8119 25.0212L27.9009 17.1392H38.5698ZM101.333 37.1557H104.439V19.3267H101.333V37.1557ZM84.2087 36.9736C84.8837 37.2542 85.5702 37.3946 86.2681 37.3946C87.421 37.3946 88.4526 37.114 89.3628 36.5526C90.2729 35.9914 90.9784 35.2177 91.4791 34.2316C91.9797 33.238 92.2299 32.1115 92.2299 30.8524C92.2299 29.5932 91.9721 28.4669 91.4563 27.4732C90.9405 26.4796 90.2237 25.7097 89.3058 25.1635C88.3881 24.6098 87.3451 24.3367 86.1769 24.3443C85.4337 24.3443 84.7207 24.4884 84.038 24.7767C83.3553 25.0649 82.7865 25.4745 82.3313 26.0055C82.2962 26.0459 82.2621 26.0867 82.229 26.128V19.3381H79.1115V37.1557H82.2062L82.2 35.4912C82.28 35.5894 82.3656 35.6852 82.4565 35.779C82.9494 36.2872 83.5336 36.6854 84.2087 36.9736ZM87.3944 34.0951C86.8862 34.4061 86.3059 34.5616 85.6536 34.5616C85.0088 34.5616 84.4172 34.4022 83.8787 34.0837C83.3401 33.7575 82.9116 33.3139 82.5929 32.7525C82.282 32.1912 82.1264 31.554 82.1264 30.841C82.1189 30.128 82.2706 29.4909 82.5816 28.9296C82.9002 28.3607 83.3287 27.9207 83.8673 27.6097C84.4058 27.2912 85.0013 27.1357 85.6536 27.1433C86.3059 27.1357 86.8862 27.2874 87.3944 27.5984C87.9102 27.9018 88.3046 28.3379 88.5777 28.9068C88.8583 29.4681 88.9987 30.1129 88.9987 30.841C88.9987 31.5692 88.8583 32.214 88.5777 32.7752C88.3046 33.3366 87.9102 33.7765 87.3944 34.0951ZM43.0696 20.4076H46.6195L49.795 32.0046L53.1731 20.4076H56.1313L59.795 31.7718L62.8442 20.4076H66.0982L61.2968 37.1557H58.2362L54.5107 26.0537L51.091 37.1557H47.9962L43.0696 20.4076ZM71.3408 37.4514C70.1043 37.4591 68.9893 37.1859 67.9957 36.6323C67.0095 36.0709 66.2322 35.2934 65.6632 34.2998C65.1019 33.3062 64.8213 32.1722 64.8213 30.8978C64.8213 29.6614 65.1095 28.5427 65.686 27.5414C66.2624 26.5402 67.0437 25.7589 68.0298 25.1976C69.0159 24.6363 70.1157 24.3557 71.3293 24.3557C72.6947 24.3557 73.8893 24.6591 74.9133 25.2659C75.9449 25.8727 76.7148 26.7336 77.223 27.8486C77.7388 28.9561 77.9247 30.2266 77.7805 31.6602H68.0347C68.0619 32.2313 68.2044 32.7509 68.4622 33.2189C68.7504 33.7347 69.1524 34.1367 69.6682 34.4249C70.184 34.7132 70.7604 34.8573 71.3977 34.8573C71.883 34.8497 72.3344 34.7663 72.7515 34.6071C73.1688 34.4402 73.5214 34.2164 73.8097 33.9357C74.1055 33.6551 74.3142 33.3366 74.4355 32.9801H77.6895C77.4923 33.8523 77.0979 34.6298 76.5063 35.3124C75.9145 35.9876 75.1713 36.5147 74.2762 36.8939C73.3812 37.2732 72.4027 37.4591 71.3408 37.4514ZM68.4735 28.5313C68.2918 28.8483 68.1658 29.1896 68.0957 29.5553H74.556C74.5092 29.0933 74.3665 28.6723 74.1283 28.2924C73.8552 27.8448 73.4835 27.4997 73.0133 27.257C72.543 27.0067 72.012 26.8815 71.4204 26.8815C70.7908 26.8815 70.2182 27.0256 69.7023 27.3139C69.1865 27.6021 68.7769 28.0079 68.4735 28.5313ZM94.5173 24.6174C94.5173 23.601 94.7485 22.6983 95.2113 21.9095C95.6739 21.113 96.3225 20.4948 97.1569 20.0549C97.9988 19.6074 98.9811 19.376 100.104 19.3608V22.1256C99.5803 22.1332 99.1328 22.2432 98.7611 22.4556C98.397 22.6604 98.1164 22.96 97.9191 23.3544C97.7376 23.7176 97.6396 24.1385 97.6253 24.6174H100.035V27.2456H97.6234V37.1557H94.5173V27.2456H92.5148V24.6174H94.5173ZM112.334 37.4286C111.068 37.4286 109.934 37.1517 108.932 36.5981C107.939 36.0367 107.157 35.2631 106.589 34.277C106.027 33.2834 105.747 32.157 105.747 30.8977C105.747 29.6311 106.027 28.5009 106.589 27.5072C107.157 26.506 107.939 25.7285 108.932 25.1748C109.934 24.6211 111.068 24.3442 112.334 24.3442C113.609 24.3442 114.746 24.6211 115.748 25.1748C116.756 25.7285 117.542 26.5022 118.103 27.4959C118.664 28.4895 118.949 29.6235 118.956 30.8977C118.949 32.157 118.664 33.2834 118.103 34.277C117.549 35.2631 116.768 36.0367 115.759 36.5981C114.75 37.1517 113.609 37.4286 112.334 37.4286ZM112.334 34.5729C113.002 34.5729 113.593 34.4211 114.109 34.1177C114.625 33.8067 115.023 33.3744 115.304 32.8206C115.585 32.2594 115.725 31.6184 115.725 30.8977C115.725 30.1696 115.585 29.5249 115.304 28.9636C115.023 28.4023 114.625 27.9699 114.109 27.6665C113.593 27.3555 113.002 27.2 112.334 27.2C111.674 27.2 111.087 27.3555 110.571 27.6665C110.063 27.9699 109.668 28.4023 109.387 28.9636C109.107 29.5249 108.97 30.1696 108.978 30.8977C108.978 31.6184 109.118 32.2594 109.399 32.8206C109.687 33.3744 110.081 33.8067 110.582 34.1177C111.09 34.4211 111.674 34.5729 112.334 34.5729ZM122.313 24.6173H118.854L122.597 37.1557H125.624L128.086 29.1474L130.743 37.1557H133.724L137.479 24.6173H134.351L132.221 32.4217L129.867 24.6173H126.841L124.499 32.5936L122.313 24.6173Z" fill="black"/>
<path fill-rule="evenodd" clip-rule="evenodd" d="M38.5698 17.1392L27.0603 39.6392H16.2495L21.0663 30.3142H20.8501C16.8764 35.4727 10.9474 38.8685 2.49951 39.6392V30.4433C2.49951 30.4433 7.90382 30.124 11.0809 26.7838H2.49951V17.1393H12.144V25.0718L12.3605 25.0709L16.3016 17.1393H23.5955V25.0215L23.8119 25.0212L27.9009 17.1392H38.5698ZM101.333 37.1557H104.439V19.3267H101.333V37.1557ZM84.2087 36.9736C84.8837 37.2542 85.5702 37.3946 86.2681 37.3946C87.421 37.3946 88.4526 37.114 89.3628 36.5526C90.2729 35.9914 90.9784 35.2177 91.4791 34.2316C91.9797 33.238 92.2299 32.1115 92.2299 30.8524C92.2299 29.5932 91.9721 28.4669 91.4563 27.4732C90.9405 26.4796 90.2237 25.7097 89.3058 25.1635C88.3881 24.6098 87.3451 24.3367 86.1769 24.3443C85.4337 24.3443 84.7207 24.4884 84.038 24.7767C83.3553 25.0649 82.7865 25.4745 82.3313 26.0055C82.2962 26.0459 82.2621 26.0867 82.229 26.128V19.3381H79.1115V37.1557H82.2062L82.2 35.4912C82.28 35.5894 82.3656 35.6852 82.4565 35.779C82.9494 36.2872 83.5336 36.6854 84.2087 36.9736ZM87.3944 34.0951C86.8862 34.4061 86.3059 34.5616 85.6536 34.5616C85.0088 34.5616 84.4172 34.4022 83.8787 34.0837C83.3401 33.7575 82.9116 33.3139 82.5929 32.7525C82.282 32.1912 82.1264 31.554 82.1264 30.841C82.1189 30.128 82.2706 29.4909 82.5816 28.9296C82.9002 28.3607 83.3287 27.9207 83.8673 27.6097C84.4058 27.2912 85.0013 27.1357 85.6536 27.1433C86.3059 27.1357 86.8862 27.2874 87.3944 27.5984C87.9102 27.9018 88.3046 28.3379 88.5777 28.9068C88.8583 29.4681 88.9987 30.1129 88.9987 30.841C88.9987 31.5692 88.8583 32.214 88.5777 32.7752C88.3046 33.3366 87.9102 33.7765 87.3944 34.0951ZM43.0696 20.4076H46.6195L49.795 32.0046L53.1731 20.4076H56.1313L59.795 31.7718L62.8442 20.4076H66.0982L61.2968 37.1557H58.2362L54.5107 26.0537L51.091 37.1557H47.9962L43.0696 20.4076ZM71.3408 37.4514C70.1043 37.4591 68.9893 37.1859 67.9957 36.6323C67.0095 36.0709 66.2322 35.2934 65.6632 34.2998C65.1019 33.3062 64.8213 32.1722 64.8213 30.8978C64.8213 29.6614 65.1095 28.5427 65.686 27.5414C66.2624 26.5402 67.0437 25.7589 68.0298 25.1976C69.0159 24.6363 70.1157 24.3557 71.3293 24.3557C72.6947 24.3557 73.8893 24.6591 74.9133 25.2659C75.9449 25.8727 76.7148 26.7336 77.223 27.8486C77.7388 28.9561 77.9247 30.2266 77.7805 31.6602H68.0347C68.0619 32.2313 68.2044 32.7509 68.4622 33.2189C68.7504 33.7347 69.1524 34.1367 69.6682 34.4249C70.184 34.7132 70.7604 34.8573 71.3977 34.8573C71.883 34.8497 72.3344 34.7663 72.7515 34.6071C73.1688 34.4402 73.5214 34.2164 73.8097 33.9357C74.1055 33.6551 74.3142 33.3366 74.4355 32.9801H77.6895C77.4923 33.8523 77.0979 34.6298 76.5063 35.3124C75.9145 35.9876 75.1713 36.5147 74.2762 36.8939C73.3812 37.2732 72.4027 37.4591 71.3408 37.4514ZM68.4735 28.5313C68.2918 28.8483 68.1658 29.1896 68.0957 29.5553H74.556C74.5092 29.0933 74.3665 28.6723 74.1283 28.2924C73.8552 27.8448 73.4835 27.4997 73.0133 27.257C72.543 27.0067 72.012 26.8815 71.4204 26.8815C70.7908 26.8815 70.2182 27.0256 69.7023 27.3139C69.1865 27.6021 68.7769 28.0079 68.4735 28.5313ZM94.5173 24.6174C94.5173 23.601 94.7485 22.6983 95.2113 21.9095C95.6739 21.113 96.3225 20.4948 97.1569 20.0549C97.9988 19.6074 98.9811 19.376 100.104 19.3608V22.1256C99.5803 22.1332 99.1328 22.2432 98.7611 22.4556C98.397 22.6604 98.1164 22.96 97.9191 23.3544C97.7376 23.7176 97.6396 24.1385 97.6253 24.6174H100.035V27.2456H97.6234V37.1557H94.5173V27.2456H92.5148V24.6174H94.5173ZM112.334 37.4286C111.068 37.4286 109.934 37.1517 108.932 36.5981C107.939 36.0367 107.157 35.2631 106.589 34.277C106.027 33.2834 105.747 32.157 105.747 30.8977C105.747 29.6311 106.027 28.5009 106.589 27.5072C107.157 26.506 107.939 25.7285 108.932 25.1748C109.934 24.6211 111.068 24.3442 112.334 24.3442C113.609 24.3442 114.746 24.6211 115.748 25.1748C116.756 25.7285 117.542 26.5022 118.103 27.4959C118.664 28.4895 118.949 29.6235 118.956 30.8977C118.949 32.157 118.664 33.2834 118.103 34.277C117.549 35.2631 116.768 36.0367 115.759 36.5981C114.75 37.1517 113.609 37.4286 112.334 37.4286ZM112.334 34.5729C113.002 34.5729 113.593 34.4211 114.109 34.1177C114.625 33.8067 115.023 33.3744 115.304 32.8206C115.585 32.2594 115.725 31.6184 115.725 30.8977C115.725 30.1696 115.585 29.5249 115.304 28.9636C115.023 28.4023 114.625 27.9699 114.109 27.6665C113.593 27.3555 113.002 27.2 112.334 27.2C111.674 27.2 111.087 27.3555 110.571 27.6665C110.063 27.9699 109.668 28.4023 109.387 28.9636C109.107 29.5249 108.97 30.1696 108.978 30.8977C108.978 31.6184 109.118 32.2594 109.399 32.8206C109.687 33.3744 110.081 33.8067 110.582 34.1177C111.09 34.4211 111.674 34.5729 112.334 34.5729ZM122.313 24.6173H118.854L122.597 37.1557H125.624L128.086 29.1474L130.743 37.1557H133.724L137.479 24.6173H134.351L132.221 32.4217L129.867 24.6173H126.841L124.499 32.5936L122.313 24.6173Z" fill="black"/>
<path d="M38.5698 17.1392L27.0603 39.6392H16.2495L21.0663 30.3142H20.8501C16.8764 35.4727 10.9474 38.8685 2.49951 39.6392V30.4433C2.49951 30.4433 7.90382 30.124 11.0809 26.7838H2.49951V17.1393H12.144V25.0718L12.3605 25.0709L16.3016 17.1393H23.5955V25.0215L23.8119 25.0212L27.9009 17.1392H38.5698ZM101.333 37.1557H104.439V19.3267H101.333V37.1557ZM84.2087 36.9736C84.8837 37.2542 85.5702 37.3946 86.2681 37.3946C87.421 37.3946 88.4526 37.114 89.3628 36.5526C90.2729 35.9914 90.9784 35.2177 91.4791 34.2316C91.9797 33.238 92.2299 32.1115 92.2299 30.8524C92.2299 29.5932 91.9721 28.4669 91.4563 27.4732C90.9405 26.4796 90.2237 25.7097 89.3058 25.1635C88.3881 24.6098 87.3451 24.3367 86.1769 24.3443C85.4337 24.3443 84.7207 24.4884 84.038 24.7767C83.3553 25.0649 82.7865 25.4745 82.3313 26.0055C82.2962 26.0459 82.2621 26.0867 82.229 26.128V19.3381H79.1115V37.1557H82.2062L82.2 35.4912C82.28 35.5894 82.3656 35.6852 82.4565 35.779C82.9494 36.2872 83.5336 36.6854 84.2087 36.9736ZM87.3944 34.0951C86.8862 34.4061 86.3059 34.5616 85.6536 34.5616C85.0088 34.5616 84.4172 34.4022 83.8787 34.0837C83.3401 33.7575 82.9116 33.3139 82.5929 32.7525C82.282 32.1912 82.1264 31.554 82.1264 30.841C82.1189 30.128 82.2706 29.4909 82.5816 28.9296C82.9002 28.3607 83.3287 27.9207 83.8673 27.6097C84.4058 27.2912 85.0013 27.1357 85.6536 27.1433C86.3059 27.1357 86.8862 27.2874 87.3944 27.5984C87.9102 27.9018 88.3046 28.3379 88.5777 28.9068C88.8583 29.4681 88.9987 30.1129 88.9987 30.841C88.9987 31.5692 88.8583 32.214 88.5777 32.7752C88.3046 33.3366 87.9102 33.7765 87.3944 34.0951ZM43.0696 20.4076H46.6195L49.795 32.0046L53.1731 20.4076H56.1313L59.795 31.7718L62.8442 20.4076H66.0982L61.2968 37.1557H58.2362L54.5107 26.0537L51.091 37.1557H47.9962L43.0696 20.4076ZM71.3408 37.4514C70.1043 37.4591 68.9893 37.1859 67.9957 36.6323C67.0095 36.0709 66.2322 35.2934 65.6632 34.2998C65.1019 33.3062 64.8213 32.1722 64.8213 30.8978C64.8213 29.6614 65.1095 28.5427 65.686 27.5414C66.2624 26.5402 67.0437 25.7589 68.0298 25.1976C69.0159 24.6363 70.1157 24.3557 71.3293 24.3557C72.6947 24.3557 73.8893 24.6591 74.9133 25.2659C75.9449 25.8727 76.7148 26.7336 77.223 27.8486C77.7388 28.9561 77.9247 30.2266 77.7805 31.6602H68.0347C68.0619 32.2313 68.2044 32.7509 68.4622 33.2189C68.7504 33.7347 69.1524 34.1367 69.6682 34.4249C70.184 34.7132 70.7604 34.8573 71.3977 34.8573C71.883 34.8497 72.3344 34.7663 72.7515 34.6071C73.1688 34.4402 73.5214 34.2164 73.8097 33.9357C74.1055 33.6551 74.3142 33.3366 74.4355 32.9801H77.6895C77.4923 33.8523 77.0979 34.6298 76.5063 35.3124C75.9145 35.9876 75.1713 36.5147 74.2762 36.8939C73.3812 37.2732 72.4027 37.4591 71.3408 37.4514ZM68.4735 28.5313C68.2918 28.8483 68.1658 29.1896 68.0957 29.5553H74.556C74.5092 29.0933 74.3665 28.6723 74.1283 28.2924C73.8552 27.8448 73.4835 27.4997 73.0133 27.257C72.543 27.0067 72.012 26.8815 71.4204 26.8815C70.7908 26.8815 70.2182 27.0256 69.7023 27.3139C69.1865 27.6021 68.7769 28.0079 68.4735 28.5313ZM94.5173 24.6174C94.5173 23.601 94.7485 22.6983 95.2113 21.9095C95.6739 21.113 96.3225 20.4948 97.1569 20.0549C97.9988 19.6074 98.9811 19.376 100.104 19.3608V22.1256C99.5803 22.1332 99.1328 22.2432 98.7611 22.4556C98.397 22.6604 98.1164 22.96 97.9191 23.3544C97.7376 23.7176 97.6396 24.1385 97.6253 24.6174H100.035V27.2456H97.6234V37.1557H94.5173V27.2456H92.5148V24.6174H94.5173ZM112.334 37.4286C111.068 37.4286 109.934 37.1517 108.932 36.5981C107.939 36.0367 107.157 35.2631 106.589 34.277C106.027 33.2834 105.747 32.157 105.747 30.8977C105.747 29.6311 106.027 28.5009 106.589 27.5072C107.157 26.506 107.939 25.7285 108.932 25.1748C109.934 24.6211 111.068 24.3442 112.334 24.3442C113.609 24.3442 114.746 24.6211 115.748 25.1748C116.756 25.7285 117.542 26.5022 118.103 27.4959C118.664 28.4895 118.949 29.6235 118.956 30.8977C118.949 32.157 118.664 33.2834 118.103 34.277C117.549 35.2631 116.768 36.0367 115.759 36.5981C114.75 37.1517 113.609 37.4286 112.334 37.4286ZM112.334 34.5729C113.002 34.5729 113.593 34.4211 114.109 34.1177C114.625 33.8067 115.023 33.3744 115.304 32.8206C115.585 32.2594 115.725 31.6184 115.725 30.8977C115.725 30.1696 115.585 29.5249 115.304 28.9636C115.023 28.4023 114.625 27.9699 114.109 27.6665C113.593 27.3555 113.002 27.2 112.334 27.2C111.674 27.2 111.087 27.3555 110.571 27.6665C110.063 27.9699 109.668 28.4023 109.387 28.9636C109.107 29.5249 108.97 30.1696 108.978 30.8977C108.978 31.6184 109.118 32.2594 109.399 32.8206C109.687 33.3744 110.081 33.8067 110.582 34.1177C111.09 34.4211 111.674 34.5729 112.334 34.5729ZM122.313 24.6173H118.854L122.597 37.1557H125.624L128.086 29.1474L130.743 37.1557H133.724L137.479 24.6173H134.351L132.221 32.4217L129.867 24.6173H126.841L124.499 32.5936L122.313 24.6173Z" fill="black"/>
<path fill-rule="evenodd" clip-rule="evenodd" d="M38.5698 17.1392L27.0603 39.6392H16.2495L21.0663 30.3142H20.8501C16.8764 35.4727 10.9474 38.8685 2.49951 39.6392V30.4433C2.49951 30.4433 7.90382 30.124 11.0809 26.7838H2.49951V17.1393H12.144V25.0718L12.3605 25.0709L16.3016 17.1393H23.5955V25.0215L23.8119 25.0212L27.9009 17.1392H38.5698ZM101.333 37.1557H104.439V19.3267H101.333V37.1557ZM84.2087 36.9736C84.8837 37.2542 85.5702 37.3946 86.2681 37.3946C87.421 37.3946 88.4526 37.114 89.3628 36.5526C90.2729 35.9914 90.9784 35.2177 91.4791 34.2316C91.9797 33.238 92.2299 32.1115 92.2299 30.8524C92.2299 29.5932 91.9721 28.4669 91.4563 27.4732C90.9405 26.4796 90.2237 25.7097 89.3058 25.1635C88.3881 24.6098 87.3451 24.3367 86.1769 24.3443C85.4337 24.3443 84.7207 24.4884 84.038 24.7767C83.3553 25.0649 82.7865 25.4745 82.3313 26.0055C82.2962 26.0459 82.2621 26.0867 82.229 26.128V19.3381H79.1115V37.1557H82.2062L82.2 35.4912C82.28 35.5894 82.3656 35.6852 82.4565 35.779C82.9494 36.2872 83.5336 36.6854 84.2087 36.9736ZM87.3944 34.0951C86.8862 34.4061 86.3059 34.5616 85.6536 34.5616C85.0088 34.5616 84.4172 34.4022 83.8787 34.0837C83.3401 33.7575 82.9116 33.3139 82.5929 32.7525C82.282 32.1912 82.1264 31.554 82.1264 30.841C82.1189 30.128 82.2706 29.4909 82.5816 28.9296C82.9002 28.3607 83.3287 27.9207 83.8673 27.6097C84.4058 27.2912 85.0013 27.1357 85.6536 27.1433C86.3059 27.1357 86.8862 27.2874 87.3944 27.5984C87.9102 27.9018 88.3046 28.3379 88.5777 28.9068C88.8583 29.4681 88.9987 30.1129 88.9987 30.841C88.9987 31.5692 88.8583 32.214 88.5777 32.7752C88.3046 33.3366 87.9102 33.7765 87.3944 34.0951ZM43.0696 20.4076H46.6195L49.795 32.0046L53.1731 20.4076H56.1313L59.795 31.7718L62.8442 20.4076H66.0982L61.2968 37.1557H58.2362L54.5107 26.0537L51.091 37.1557H47.9962L43.0696 20.4076ZM71.3408 37.4514C70.1043 37.4591 68.9893 37.1859 67.9957 36.6323C67.0095 36.0709 66.2322 35.2934 65.6632 34.2998C65.1019 33.3062 64.8213 32.1722 64.8213 30.8978C64.8213 29.6614 65.1095 28.5427 65.686 27.5414C66.2624 26.5402 67.0437 25.7589 68.0298 25.1976C69.0159 24.6363 70.1157 24.3557 71.3293 24.3557C72.6947 24.3557 73.8893 24.6591 74.9133 25.2659C75.9449 25.8727 76.7148 26.7336 77.223 27.8486C77.7388 28.9561 77.9247 30.2266 77.7805 31.6602H68.0347C68.0619 32.2313 68.2044 32.7509 68.4622 33.2189C68.7504 33.7347 69.1524 34.1367 69.6682 34.4249C70.184 34.7132 70.7604 34.8573 71.3977 34.8573C71.883 34.8497 72.3344 34.7663 72.7515 34.6071C73.1688 34.4402 73.5214 34.2164 73.8097 33.9357C74.1055 33.6551 74.3142 33.3366 74.4355 32.9801H77.6895C77.4923 33.8523 77.0979 34.6298 76.5063 35.3124C75.9145 35.9876 75.1713 36.5147 74.2762 36.8939C73.3812 37.2732 72.4027 37.4591 71.3408 37.4514ZM68.4735 28.5313C68.2918 28.8483 68.1658 29.1896 68.0957 29.5553H74.556C74.5092 29.0933 74.3665 28.6723 74.1283 28.2924C73.8552 27.8448 73.4835 27.4997 73.0133 27.257C72.543 27.0067 72.012 26.8815 71.4204 26.8815C70.7908 26.8815 70.2182 27.0256 69.7023 27.3139C69.1865 27.6021 68.7769 28.0079 68.4735 28.5313ZM94.5173 24.6174C94.5173 23.601 94.7485 22.6983 95.2113 21.9095C95.6739 21.113 96.3225 20.4948 97.1569 20.0549C97.9988 19.6074 98.9811 19.376 100.104 19.3608V22.1256C99.5803 22.1332 99.1328 22.2432 98.7611 22.4556C98.397 22.6604 98.1164 22.96 97.9191 23.3544C97.7376 23.7176 97.6396 24.1385 97.6253 24.6174H100.035V27.2456H97.6234V37.1557H94.5173V27.2456H92.5148V24.6174H94.5173ZM112.334 37.4286C111.068 37.4286 109.934 37.1517 108.932 36.5981C107.939 36.0367 107.157 35.2631 106.589 34.277C106.027 33.2834 105.747 32.157 105.747 30.8977C105.747 29.6311 106.027 28.5009 106.589 27.5072C107.157 26.506 107.939 25.7285 108.932 25.1748C109.934 24.6211 111.068 24.3442 112.334 24.3442C113.609 24.3442 114.746 24.6211 115.748 25.1748C116.756 25.7285 117.542 26.5022 118.103 27.4959C118.664 28.4895 118.949 29.6235 118.956 30.8977C118.949 32.157 118.664 33.2834 118.103 34.277C117.549 35.2631 116.768 36.0367 115.759 36.5981C114.75 37.1517 113.609 37.4286 112.334 37.4286ZM112.334 34.5729C113.002 34.5729 113.593 34.4211 114.109 34.1177C114.625 33.8067 115.023 33.3744 115.304 32.8206C115.585 32.2594 115.725 31.6184 115.725 30.8977C115.725 30.1696 115.585 29.5249 115.304 28.9636C115.023 28.4023 114.625 27.9699 114.109 27.6665C113.593 27.3555 113.002 27.2 112.334 27.2C111.674 27.2 111.087 27.3555 110.571 27.6665C110.063 27.9699 109.668 28.4023 109.387 28.9636C109.107 29.5249 108.97 30.1696 108.978 30.8977C108.978 31.6184 109.118 32.2594 109.399 32.8206C109.687 33.3744 110.081 33.8067 110.582 34.1177C111.09 34.4211 111.674 34.5729 112.334 34.5729ZM122.313 24.6173H118.854L122.597 37.1557H125.624L128.086 29.1474L130.743 37.1557H133.724L137.479 24.6173H134.351L132.221 32.4217L129.867 24.6173H126.841L124.499 32.5936L122.313 24.6173Z" fill="black"/>
<path d="M38.5698 17.1392L27.0603 39.6392H16.2495L21.0663 30.3142H20.8501C16.8764 35.4727 10.9474 38.8685 2.49951 39.6392V30.4433C2.49951 30.4433 7.90382 30.124 11.0809 26.7838H2.49951V17.1393H12.144V25.0718L12.3605 25.0709L16.3016 17.1393H23.5955V25.0215L23.8119 25.0212L27.9009 17.1392H38.5698ZM101.333 37.1557H104.439V19.3267H101.333V37.1557ZM84.2087 36.9736C84.8837 37.2542 85.5702 37.3946 86.2681 37.3946C87.421 37.3946 88.4526 37.114 89.3628 36.5526C90.2729 35.9914 90.9784 35.2177 91.4791 34.2316C91.9797 33.238 92.2299 32.1115 92.2299 30.8524C92.2299 29.5932 91.9721 28.4669 91.4563 27.4732C90.9405 26.4796 90.2237 25.7097 89.3058 25.1635C88.3881 24.6098 87.3451 24.3367 86.1769 24.3443C85.4337 24.3443 84.7207 24.4884 84.038 24.7767C83.3553 25.0649 82.7865 25.4745 82.3313 26.0055C82.2962 26.0459 82.2621 26.0867 82.229 26.128V19.3381H79.1115V37.1557H82.2062L82.2 35.4912C82.28 35.5894 82.3656 35.6852 82.4565 35.779C82.9494 36.2872 83.5336 36.6854 84.2087 36.9736ZM87.3944 34.0951C86.8862 34.4061 86.3059 34.5616 85.6536 34.5616C85.0088 34.5616 84.4172 34.4022 83.8787 34.0837C83.3401 33.7575 82.9116 33.3139 82.5929 32.7525C82.282 32.1912 82.1264 31.554 82.1264 30.841C82.1189 30.128 82.2706 29.4909 82.5816 28.9296C82.9002 28.3607 83.3287 27.9207 83.8673 27.6097C84.4058 27.2912 85.0013 27.1357 85.6536 27.1433C86.3059 27.1357 86.8862 27.2874 87.3944 27.5984C87.9102 27.9018 88.3046 28.3379 88.5777 28.9068C88.8583 29.4681 88.9987 30.1129 88.9987 30.841C88.9987 31.5692 88.8583 32.214 88.5777 32.7752C88.3046 33.3366 87.9102 33.7765 87.3944 34.0951ZM43.0696 20.4076H46.6195L49.795 32.0046L53.1731 20.4076H56.1313L59.795 31.7718L62.8442 20.4076H66.0982L61.2968 37.1557H58.2362L54.5107 26.0537L51.091 37.1557H47.9962L43.0696 20.4076ZM71.3408 37.4514C70.1043 37.4591 68.9893 37.1859 67.9957 36.6323C67.0095 36.0709 66.2322 35.2934 65.6632 34.2998C65.1019 33.3062 64.8213 32.1722 64.8213 30.8978C64.8213 29.6614 65.1095 28.5427 65.686 27.5414C66.2624 26.5402 67.0437 25.7589 68.0298 25.1976C69.0159 24.6363 70.1157 24.3557 71.3293 24.3557C72.6947 24.3557 73.8893 24.6591 74.9133 25.2659C75.9449 25.8727 76.7148 26.7336 77.223 27.8486C77.7388 28.9561 77.9247 30.2266 77.7805 31.6602H68.0347C68.0619 32.2313 68.2044 32.7509 68.4622 33.2189C68.7504 33.7347 69.1524 34.1367 69.6682 34.4249C70.184 34.7132 70.7604 34.8573 71.3977 34.8573C71.883 34.8497 72.3344 34.7663 72.7515 34.6071C73.1688 34.4402 73.5214 34.2164 73.8097 33.9357C74.1055 33.6551 74.3142 33.3366 74.4355 32.9801H77.6895C77.4923 33.8523 77.0979 34.6298 76.5063 35.3124C75.9145 35.9876 75.1713 36.5147 74.2762 36.8939C73.3812 37.2732 72.4027 37.4591 71.3408 37.4514ZM68.4735 28.5313C68.2918 28.8483 68.1658 29.1896 68.0957 29.5553H74.556C74.5092 29.0933 74.3665 28.6723 74.1283 28.2924C73.8552 27.8448 73.4835 27.4997 73.0133 27.257C72.543 27.0067 72.012 26.8815 71.4204 26.8815C70.7908 26.8815 70.2182 27.0256 69.7023 27.3139C69.1865 27.6021 68.7769 28.0079 68.4735 28.5313ZM94.5173 24.6174C94.5173 23.601 94.7485 22.6983 95.2113 21.9095C95.6739 21.113 96.3225 20.4948 97.1569 20.0549C97.9988 19.6074 98.9811 19.376 100.104 19.3608V22.1256C99.5803 22.1332 99.1328 22.2432 98.7611 22.4556C98.397 22.6604 98.1164 22.96 97.9191 23.3544C97.7376 23.7176 97.6396 24.1385 97.6253 24.6174H100.035V27.2456H97.6234V37.1557H94.5173V27.2456H92.5148V24.6174H94.5173ZM112.334 37.4286C111.068 37.4286 109.934 37.1517 108.932 36.5981C107.939 36.0367 107.157 35.2631 106.589 34.277C106.027 33.2834 105.747 32.157 105.747 30.8977C105.747 29.6311 106.027 28.5009 106.589 27.5072C107.157 26.506 107.939 25.7285 108.932 25.1748C109.934 24.6211 111.068 24.3442 112.334 24.3442C113.609 24.3442 114.746 24.6211 115.748 25.1748C116.756 25.7285 117.542 26.5022 118.103 27.4959C118.664 28.4895 118.949 29.6235 118.956 30.8977C118.949 32.157 118.664 33.2834 118.103 34.277C117.549 35.2631 116.768 36.0367 115.759 36.5981C114.75 37.1517 113.609 37.4286 112.334 37.4286ZM112.334 34.5729C113.002 34.5729 113.593 34.4211 114.109 34.1177C114.625 33.8067 115.023 33.3744 115.304 32.8206C115.585 32.2594 115.725 31.6184 115.725 30.8977C115.725 30.1696 115.585 29.5249 115.304 28.9636C115.023 28.4023 114.625 27.9699 114.109 27.6665C113.593 27.3555 113.002 27.2 112.334 27.2C111.674 27.2 111.087 27.3555 110.571 27.6665C110.063 27.9699 109.668 28.4023 109.387 28.9636C109.107 29.5249 108.97 30.1696 108.978 30.8977C108.978 31.6184 109.118 32.2594 109.399 32.8206C109.687 33.3744 110.081 33.8067 110.582 34.1177C111.09 34.4211 111.674 34.5729 112.334 34.5729ZM122.313 24.6173H118.854L122.597 37.1557H125.624L128.086 29.1474L130.743 37.1557H133.724L137.479 24.6173H134.351L132.221 32.4217L129.867 24.6173H126.841L124.499 32.5936L122.313 24.6173Z" fill="black"/>
</svg>
