<svg width="32" height="33" viewBox="0 0 32 33" fill="none" xmlns="http://www.w3.org/2000/svg">
<path d="M25.3336 16.5559V17.2225C25.3336 17.5907 25.0352 17.8892 24.667 17.8892H17.0003V25.5559C17.0003 25.924 16.7018 26.2225 16.3336 26.2225H15.667C15.2988 26.2225 15.0003 25.924 15.0003 25.5559V17.8892H7.33366C6.96547 17.8892 6.66699 17.5907 6.66699 17.2225V16.5559C6.66699 16.1877 6.96547 15.8892 7.33366 15.8892H15.0003V8.22257C15.0003 7.85438 15.2988 7.55591 15.667 7.55591H16.3336C16.7018 7.55591 17.0003 7.85438 17.0003 8.22257V15.8892H24.667C25.0352 15.8892 25.3336 16.1877 25.3336 16.5559Z" fill="black"/>
</svg>
